<svg id="Layer_1" data-name="Layer 1" xmlns="http://www.w3.org/2000/svg" xmlns:xlink="http://www.w3.org/1999/xlink" viewBox="0 0 595.28 595.28"><defs><style>.cls-1{fill:none;}.cls-2{clip-path:url(#clip-path);}.cls-3{fill:#ebebed;}.cls-4{fill:#535b5f;}.cls-5{fill:#1b9dd9;}.cls-6{fill:#069a93;}.cls-7{fill:#0a69b3;}.cls-8{fill:#e50c52;}.cls-9{fill:#7a2382;}.cls-10{fill:#95c122;}.cls-11{fill:#e44916;}.cls-12{fill:#f39208;}.cls-13{fill:#fff;}.cls-14{opacity:0.3;}</style><clipPath id="clip-path"><rect class="cls-1" x="153.52" y="153.52" width="288.23" height="288.23"/></clipPath></defs><title>Precise-ERP-Wheel-2019</title><g class="cls-2"><path class="cls-3" d="M297.64,441.75A144.12,144.12,0,1,0,153.52,297.64,144.11,144.11,0,0,0,297.64,441.75"/><path class="cls-4" d="M270.09,246.66a3.18,3.18,0,1,0,0-6.35h-21.5c-2.47,0-3.82,1.36-3.82,3.83v33.45c0,2.47,1.35,3.82,3.82,3.82h21.5a3.17,3.17,0,1,0,0-6.34H252v-11.4h17.68a3.18,3.18,0,1,0,0-6.35H252V246.66Z"/><path class="cls-4" d="M297.39,259.72h-9.86V246.66h9.86c4.07,0,7,2.59,7,6.53s-3,6.53-7,6.53m5.92,5.3c4.5-1.23,8.5-5.11,8.5-11.83,0-7.58-5.3-12.87-13.43-12.87H284.14a3.44,3.44,0,0,0-3.82,3.82v34a3.61,3.61,0,1,0,7.21,0V266.07h8.38l9.68,14.17a3.83,3.83,0,0,0,3,1.54,3.47,3.47,0,0,0,3.38-3.26,3.57,3.57,0,0,0-.67-2.28Z"/><path class="cls-4" d="M336.09,259.72h-9.86V246.66h9.86c4.07,0,7,2.59,7,6.53s-3,6.53-7,6.53m1-19.41H322.84c-2.46,0-3.82,1.36-3.82,3.83v34a3.61,3.61,0,1,0,7.21,0V266.07h10.85c8.56,0,13.43-5.91,13.43-12.88s-4.81-12.88-13.43-12.88"/></g><path class="cls-4" d="M250.16,295.17H260v2.21h-7.3v3.72h7.15v2.21h-7.15v4H260v2.21h-9.81Z"/><path class="cls-4" d="M269.49,303c0-1.61-.82-2.15-2.09-2.15a3.44,3.44,0,0,0-2.66,1.39v7.24h-2.25V299.12h2.25v1.42a4.9,4.9,0,0,1,3.65-1.68,3,3,0,0,1,3.35,3.33v7.3h-2.25Z"/><path class="cls-4" d="M275.11,307.09v-6H273.4v-2h1.71v-2.83h2.26v2.83h2.1v2h-2.1v5.43c0,.71.34,1.22,1,1.22a1.46,1.46,0,0,0,1-.36l.54,1.69a3,3,0,0,1-2.12.67A2.4,2.4,0,0,1,275.11,307.09Z"/><path class="cls-4" d="M286.13,298.86c3.11,0,5.11,2.39,5.11,5.65v.54h-8a3.14,3.14,0,0,0,3.31,2.85,4.4,4.4,0,0,0,2.94-1.14l1,1.49a6.09,6.09,0,0,1-4.21,1.5,5.45,5.45,0,0,1-.17-10.89Zm-2.92,4.6h5.84a2.78,2.78,0,0,0-2.92-2.75A2.86,2.86,0,0,0,283.21,303.46Z"/><path class="cls-4" d="M293.47,299.12h2.26v1.52a4.43,4.43,0,0,1,3.37-1.76v2.24a2.94,2.94,0,0,0-.71-.07,3.57,3.57,0,0,0-2.66,1.38v7.06h-2.26Z"/><path class="cls-4" d="M300.92,313.44V299.12h2.26v1.42a4.13,4.13,0,0,1,3.32-1.68c2.69,0,4.6,2,4.6,5.43s-1.91,5.46-4.6,5.46a4,4,0,0,1-3.32-1.7v5.39Zm4.92-12.58a3.36,3.36,0,0,0-2.66,1.39v4.11a3.42,3.42,0,0,0,2.66,1.39c1.78,0,2.92-1.44,2.92-3.46S307.62,300.86,305.84,300.86Z"/><path class="cls-4" d="M313.38,299.12h2.25v1.52a4.45,4.45,0,0,1,3.37-1.76v2.24a2.88,2.88,0,0,0-.71-.07,3.59,3.59,0,0,0-2.66,1.38v7.06h-2.25Z"/><path class="cls-4" d="M320.55,296a1.4,1.4,0,1,1,1.39,1.39A1.4,1.4,0,0,1,320.55,296Zm.28,3.11h2.25v10.37h-2.25Z"/><path class="cls-4" d="M326.13,306.51a5.36,5.36,0,0,0,3.52,1.46c1.35,0,2-.5,2-1.27s-1.09-1.22-2.36-1.5c-1.78-.39-3.91-.86-3.91-3.18,0-1.7,1.46-3.16,4.08-3.16a6,6,0,0,1,4,1.46l-1,1.59a4.17,4.17,0,0,0-3.07-1.24c-1.18,0-1.93.43-1.93,1.16s1,1.07,2.26,1.35c1.8.38,4,.9,4,3.35,0,1.82-1.52,3.22-4.32,3.22a6.3,6.3,0,0,1-4.44-1.61Z"/><path class="cls-4" d="M340.75,298.86c3.12,0,5.11,2.39,5.11,5.65v.54h-8a3.14,3.14,0,0,0,3.3,2.85,4.39,4.39,0,0,0,2.94-1.14l1,1.49a6.07,6.07,0,0,1-4.21,1.5,5.45,5.45,0,0,1-.17-10.89Zm-2.92,4.6h5.84a2.77,2.77,0,0,0-2.92-2.75A2.86,2.86,0,0,0,337.83,303.46Z"/><path class="cls-4" d="M259.42,326.88h-2.49v5.35h-2.52V317.91h6.29a4.35,4.35,0,0,1,4.68,4.49,4,4,0,0,1-3.39,4.2l3.5,5.63h-2.9Zm.94-6.76h-3.43v4.55h3.43a2.28,2.28,0,1,0,0-4.55Z"/><path class="cls-4" d="M271.83,321.6c3.11,0,5.11,2.39,5.11,5.65v.54h-8a3.14,3.14,0,0,0,3.31,2.85,4.4,4.4,0,0,0,2.94-1.14l1,1.48a6,6,0,0,1-4.21,1.51,5.45,5.45,0,0,1-.17-10.89Zm-2.92,4.6h5.84a2.78,2.78,0,0,0-2.92-2.75A2.86,2.86,0,0,0,268.91,326.2Z"/><path class="cls-4" d="M279.3,329.25a5.36,5.36,0,0,0,3.52,1.46c1.35,0,2-.5,2-1.27s-1.09-1.23-2.36-1.5c-1.78-.39-3.91-.86-3.91-3.18,0-1.7,1.46-3.16,4.08-3.16a5.94,5.94,0,0,1,4,1.46l-.95,1.59a4.17,4.17,0,0,0-3.07-1.24c-1.18,0-1.93.42-1.93,1.16s1,1.07,2.25,1.35c1.81.38,4,.9,4,3.35,0,1.82-1.52,3.22-4.32,3.22a6.3,6.3,0,0,1-4.44-1.61Z"/><path class="cls-4" d="M288.66,327a5.34,5.34,0,1,1,5.33,5.46A5.19,5.19,0,0,1,288.66,327Zm8.33,0c0-1.82-1.07-3.43-3-3.43s-3,1.61-3,3.43,1.08,3.46,3,3.46S297,328.88,297,327Z"/><path class="cls-4" d="M308.61,330.86a5,5,0,0,1-3.67,1.63c-2.23,0-3.33-1.16-3.33-3.29v-7.34h2.25v6.53c0,1.61.82,2.1,2.09,2.1a3.44,3.44,0,0,0,2.66-1.35v-7.28h2.25v10.37h-2.25Z"/><path class="cls-4" d="M313.79,321.86H316v1.52a4.45,4.45,0,0,1,3.37-1.76v2.24a2.88,2.88,0,0,0-.71-.07,3.59,3.59,0,0,0-2.66,1.38v7.06h-2.25Z"/><path class="cls-4" d="M326,321.6a4.64,4.64,0,0,1,4,1.85l-1.48,1.37a2.77,2.77,0,0,0-2.38-1.22,3.46,3.46,0,0,0,0,6.89,2.82,2.82,0,0,0,2.38-1.22l1.48,1.37a4.64,4.64,0,0,1-4,1.85,5.45,5.45,0,0,1,0-10.89Z"/><path class="cls-4" d="M336.52,321.6c3.12,0,5.11,2.39,5.11,5.65v.54h-8a3.14,3.14,0,0,0,3.3,2.85,4.39,4.39,0,0,0,2.94-1.14l1,1.48a6,6,0,0,1-4.21,1.51,5.45,5.45,0,0,1-.17-10.89Zm-2.92,4.6h5.84a2.77,2.77,0,0,0-2.92-2.75A2.86,2.86,0,0,0,333.6,326.2Z"/><path class="cls-4" d="M257.23,340.65h6.29a4.49,4.49,0,1,1,0,9h-3.78V355h-2.51Zm5.94,2.21h-3.43v4.55h3.43a2.28,2.28,0,1,0,0-4.55Z"/><path class="cls-4" d="M270.22,340.65h2.25V355h-2.25Z"/><path class="cls-4" d="M281.73,353.85a4.4,4.4,0,0,1-3.35,1.38,3.45,3.45,0,0,1-3.61-3.44,3.34,3.34,0,0,1,3.61-3.37,4.31,4.31,0,0,1,3.35,1.33v-1.54c0-1.21-1-1.94-2.43-1.94a4.24,4.24,0,0,0-3.07,1.31l-.92-1.56a6.15,6.15,0,0,1,4.36-1.68c2.29,0,4.31,1,4.31,3.76V355h-2.25Zm0-2.81a3,3,0,0,0-2.47-1.07,1.88,1.88,0,1,0,0,3.71,3,3,0,0,0,2.47-1.07Z"/><path class="cls-4" d="M293.9,348.49c0-1.61-.81-2.15-2.08-2.15a3.42,3.42,0,0,0-2.66,1.39V355H286.9V344.6h2.26V346a4.87,4.87,0,0,1,3.65-1.68,3,3,0,0,1,3.34,3.33V355H293.9Z"/><path class="cls-4" d="M306.08,348.49c0-1.61-.82-2.15-2.09-2.15a3.44,3.44,0,0,0-2.66,1.39V355h-2.25V344.6h2.25V346a4.9,4.9,0,0,1,3.65-1.68,3,3,0,0,1,3.35,3.33V355h-2.25Z"/><path class="cls-4" d="M311,341.49a1.41,1.41,0,0,1,1.4-1.4,1.4,1.4,0,0,1,0,2.79A1.41,1.41,0,0,1,311,341.49Zm.28,3.11h2.26V355h-2.26Z"/><path class="cls-4" d="M323.43,348.49c0-1.61-.82-2.15-2.09-2.15a3.44,3.44,0,0,0-2.66,1.39V355h-2.25V344.6h2.25V346a4.9,4.9,0,0,1,3.65-1.68,3,3,0,0,1,3.35,3.33V355h-2.25Z"/><path class="cls-4" d="M329.52,356a4,4,0,0,0,3.29,1.33c1.48,0,3.07-.69,3.07-2.81v-1.25a4.23,4.23,0,0,1-3.33,1.72c-2.64,0-4.59-1.91-4.59-5.32s1.93-5.33,4.59-5.33a4.13,4.13,0,0,1,3.33,1.7V344.6h2.25v9.83c0,3.74-2.77,4.75-5.32,4.75a5.87,5.87,0,0,1-4.34-1.55Zm6.36-8.27a3.36,3.36,0,0,0-2.66-1.39c-1.78,0-2.92,1.33-2.92,3.33s1.14,3.32,2.92,3.32a3.36,3.36,0,0,0,2.66-1.39Z"/><path class="cls-5" d="M301.76,422.94v107.9a9.41,9.41,0,0,0,10,9.38,242,242,0,0,0,147.39-61.16,9.41,9.41,0,0,0,.43-13.69l-76.22-76.21a47.75,47.75,0,0,0-52.06-10.36h0A47.76,47.76,0,0,0,301.76,422.94Z"/><path class="cls-6" d="M212,389.16l-76.21,76.21a9.41,9.41,0,0,0,.43,13.69,242,242,0,0,0,147.39,61.16,9.4,9.4,0,0,0,9.95-9.38V422.94A47.77,47.77,0,0,0,264,378.8h0A47.77,47.77,0,0,0,212,389.16Z"/><path class="cls-7" d="M389.16,383.32l76.21,76.22a9.41,9.41,0,0,0,13.69-.43,242,242,0,0,0,61.16-147.39,9.41,9.41,0,0,0-9.38-10H422.94a47.77,47.77,0,0,0-44.14,29.5h0A47.76,47.76,0,0,0,389.16,383.32Z"/><path class="cls-8" d="M383.32,206.12l76.22-76.21a9.42,9.42,0,0,0-.43-13.7A242,242,0,0,0,311.72,55.06a9.41,9.41,0,0,0-10,9.38v107.9a47.78,47.78,0,0,0,29.5,44.14h0A47.78,47.78,0,0,0,383.32,206.12Z"/><path class="cls-9" d="M378.8,264h0a47.77,47.77,0,0,0,44.14,29.49h107.9a9.4,9.4,0,0,0,9.38-9.95,242,242,0,0,0-61.16-147.39,9.41,9.41,0,0,0-13.69-.43L389.16,212A47.77,47.77,0,0,0,378.8,264Z"/><path class="cls-10" d="M172.34,301.76H64.44a9.41,9.41,0,0,0-9.38,10,242,242,0,0,0,61.15,147.39,9.42,9.42,0,0,0,13.7.43l76.21-76.22a47.78,47.78,0,0,0,10.36-52.06h0A47.78,47.78,0,0,0,172.34,301.76Z"/><path class="cls-11" d="M293.51,172.34V64.44a9.4,9.4,0,0,0-9.95-9.38,242,242,0,0,0-147.39,61.15,9.42,9.42,0,0,0-.43,13.7L212,206.12A47.8,47.8,0,0,0,264,216.48h0A47.79,47.79,0,0,0,293.51,172.34Z"/><path class="cls-12" d="M206.12,212l-76.21-76.21a9.42,9.42,0,0,0-13.7.43A241.94,241.94,0,0,0,55.06,283.56a9.4,9.4,0,0,0,9.38,9.95h107.9A47.79,47.79,0,0,0,216.48,264h0A47.8,47.8,0,0,0,206.12,212Z"/><path class="cls-13" d="M162.41,116.48l-4.76,3.66,3.25,4.23L158.75,126,151,115.94l2.14-1.65,3,4,4.76-3.66-3.05-4,2.17-1.66,7.74,10.08-2.16,1.66Z"/><path class="cls-13" d="M174.16,113.28a4.31,4.31,0,0,1-1.89,3,2.64,2.64,0,0,1-4.09-.72l-3.69-5.39,2-1.37,3.15,4.61a1.48,1.48,0,0,0,2.36.44,2.71,2.71,0,0,0,1.14-2l-3.52-5.15,2-1.36,5.19,7.59-2,1.37Z"/><path class="cls-13" d="M185.45,100.77a1.28,1.28,0,0,0-1.93-.56,2.48,2.48,0,0,0-1.09,1.9l3.19,5.33-2.09,1.25-3-5a1.27,1.27,0,0,0-1.93-.55,2.48,2.48,0,0,0-1.08,1.91l3.18,5.31-2.08,1.25-4.72-7.91,2.08-1.24.61,1a4.06,4.06,0,0,1,1.86-2.77,2.44,2.44,0,0,1,3,.13,3.92,3.92,0,0,1,1.86-3.06,2.46,2.46,0,0,1,3.75,1l3.41,5.71-2.1,1.25Z"/><path class="cls-13" d="M196.94,100.13a3.81,3.81,0,0,1-2.05,2.39,3.05,3.05,0,0,1-4.24-1.23,2.91,2.91,0,0,1,1.48-4.08,3.78,3.78,0,0,1,3.11-.35l-.59-1.13c-.43-.83-1.42-1-2.5-.44a3.88,3.88,0,0,0-1.89,2.21l-1.56-1a6.06,6.06,0,0,1,2.9-3.14c1.86-1,4-1.11,5.18,1.24l2.74,5.28L197.38,101ZM195.83,98a2.43,2.43,0,0,0-2.1.18,1.53,1.53,0,0,0-.89,2c.39.76,1.31.84,2.16.4A2.44,2.44,0,0,0,196.36,99Z"/><path class="cls-13" d="M204.86,91.2a1.49,1.49,0,0,0-2.26-.84,2.58,2.58,0,0,0-1.45,1.86l2.59,5.63-2.2,1-3.85-8.36,2.2-1,.5,1.09a4.22,4.22,0,0,1,2.33-2.64,2.67,2.67,0,0,1,3.94,1.41l2.72,5.91-2.2,1Z"/><path class="cls-13" d="M213.15,86.75a6.43,6.43,0,0,1,4-8.48,5.87,5.87,0,0,1,6.16,1l-1.78,1.88a3.49,3.49,0,0,0-3.54-.66,4.19,4.19,0,0,0,2.9,7.83,3.45,3.45,0,0,0,2.26-2.81l2.57.25a5.9,5.9,0,0,1-4,4.81A6.43,6.43,0,0,1,213.15,86.75Z"/><path class="cls-13" d="M233,85.55a3.82,3.82,0,0,1-2.44,2,3.06,3.06,0,0,1-4-2,2.91,2.91,0,0,1,2.18-3.75,3.69,3.69,0,0,1,3.12.2l-.38-1.22c-.28-.89-1.22-1.23-2.39-.87a3.85,3.85,0,0,0-2.24,1.84l-1.36-1.28A6.06,6.06,0,0,1,229,77.93c2-.62,4.09-.4,4.88,2.13l1.77,5.68-2.31.72Zm-.72-2.29a2.42,2.42,0,0,0-2.09-.19c-.91.29-1.51,1-1.25,1.85s1.15,1.06,2.06.77a2.4,2.4,0,0,0,1.62-1.34Z"/><path class="cls-13" d="M238.66,88.51l-3.2-12.31,2.34-.61.3,1.13a3.52,3.52,0,0,1,2.39-2.06c2.29-.6,4.39.67,5.16,3.64s-.44,5.12-2.73,5.71a3.51,3.51,0,0,1-3.1-.65L241,87.9Zm1.64-11.58a2.73,2.73,0,0,0-1.75,1.54l.82,3.16a2.8,2.8,0,0,0,2.27.49,2.71,2.71,0,0,0-1.34-5.19Z"/><path class="cls-13" d="M245.63,70.77a1.47,1.47,0,0,1,1.1-1.73,1.45,1.45,0,0,1,.63,2.83A1.47,1.47,0,0,1,245.63,70.77Zm.85,2.68,2.36-.53,2,9-2.37.52Z"/><path class="cls-13" d="M253.13,79.09l-.93-4.71-1.49.29-.41-2.08,1.5-.29-.48-2.47,2.39-.46.48,2.47,1.84-.36.4,2.07-1.83.36.8,4.08c.11.56.49.93,1,.83a1.32,1.32,0,0,0,.77-.42l.86,1.7a3,3,0,0,1-1.87,1A2.29,2.29,0,0,1,253.13,79.09Z"/><path class="cls-13" d="M264.62,78.43a3.77,3.77,0,0,1-2.7,1.61,3.06,3.06,0,0,1-3.63-2.51,2.92,2.92,0,0,1,2.71-3.4,3.7,3.7,0,0,1,3.05.66l-.19-1.26c-.15-.92-1-1.4-2.24-1.21a3.83,3.83,0,0,0-2.48,1.49L258,72.35a6,6,0,0,1,3.75-2c2.07-.33,4.1.2,4.51,2.82l.92,5.87-2.39.38Zm-.37-2.38a2.44,2.44,0,0,0-2-.49c-.94.15-1.64.78-1.5,1.65s1,1.21,1.92,1.07a2.46,2.46,0,0,0,1.8-1.1Z"/><path class="cls-13" d="M267.9,66.1l2.4-.29,1.54,12.62-2.4.29Z"/><path class="cls-13" d="M175.12,128.07l2.65,9.46-.94.72-8.37-5.15,5.5,7.3L171.8,142l-7.65-10.14,3-2.29,7.24,4.47-2.31-8.19,3-2.29,7.65,10.14-2.17,1.65Z"/><path class="cls-13" d="M188.8,128.68a3.76,3.76,0,0,1-1.79,2.59,3.06,3.06,0,0,1-4.35-.79,2.91,2.91,0,0,1,1.07-4.21,3.72,3.72,0,0,1,3.06-.66l-.71-1.07c-.51-.78-1.51-.85-2.53-.18a3.84,3.84,0,0,0-1.65,2.38l-1.66-.85a6.07,6.07,0,0,1,2.57-3.42c1.75-1.15,3.82-1.5,5.28.71l3.26,5-2,1.33Zm-1.31-2a2.41,2.41,0,0,0-2.07.39,1.41,1.41,0,1,0,1.51,2.3,2.42,2.42,0,0,0,1.18-1.74Z"/><path class="cls-13" d="M195.8,119a1.49,1.49,0,0,0-2.33-.62,2.64,2.64,0,0,0-1.27,2l3.13,5.35L193.24,127l-4.64-8,2.09-1.22.6,1a4.23,4.23,0,0,1,2.06-2.86,2.68,2.68,0,0,1,4.07,1l3.27,5.61-2.09,1.22Z"/><path class="cls-13" d="M207.13,118.17a3.81,3.81,0,0,1-2,2.39,3.07,3.07,0,0,1-4.24-1.25,2.91,2.91,0,0,1,1.5-4.07,3.73,3.73,0,0,1,3.11-.34l-.59-1.13c-.42-.83-1.42-1-2.5-.45a3.83,3.83,0,0,0-1.89,2.2l-1.56-1a6.06,6.06,0,0,1,2.91-3.13c1.87-1,4-1.1,5.18,1.25l2.72,5.29L207.57,119ZM206,116a2.41,2.41,0,0,0-2.09.18,1.41,1.41,0,1,0,1.25,2.44,2.46,2.46,0,0,0,1.37-1.61Z"/><path class="cls-13" d="M212.79,117.12a3.67,3.67,0,0,0,3.1-.14,2.24,2.24,0,0,0,1.35-3.16l-.38-.85a3.59,3.59,0,0,1-2,2.49c-2.11.94-4.37.19-5.63-2.61s-.34-5,1.78-5.94a3.52,3.52,0,0,1,3.17.12L213.7,106l2.23-1,3.52,7.82c1.43,3.2-.68,5.09-2.75,6a5.56,5.56,0,0,1-4.18.38Zm2.13-8.46a2.61,2.61,0,0,0-2.32-.1,2.54,2.54,0,0,0,2.08,4.62,2.66,2.66,0,0,0,1.46-1.81Z"/><path class="cls-13" d="M222.26,102.19c2.56-1,5.05.25,6.13,3.06l.2.5-6.39,2.47a2.49,2.49,0,0,0,3.25,1,3.76,3.76,0,0,0,2-1.74l1.56,1.08a5.73,5.73,0,0,1-3.08,2.56,4.83,4.83,0,1,1-3.63-9Zm-.68,4.51,4.23-1.63A2.13,2.13,0,0,0,223,104,2.21,2.21,0,0,0,221.58,106.7Z"/><path class="cls-13" d="M240.56,99.8a1.26,1.26,0,0,0-1.74-1,2.41,2.41,0,0,0-1.5,1.58l1.85,5.94-2.33.72-1.73-5.55a1.28,1.28,0,0,0-1.75-1,2.5,2.5,0,0,0-1.5,1.61l1.85,5.91-2.31.72L228.66,100l2.31-.72.35,1.15a4.05,4.05,0,0,1,2.45-2.26,2.43,2.43,0,0,1,2.94.84,3.91,3.91,0,0,1,2.52-2.55,2.46,2.46,0,0,1,3.41,1.85l2,6.35-2.33.73Z"/><path class="cls-13" d="M248.6,94c2.66-.64,5,.92,5.67,3.85l.12.52-6.65,1.6a2.47,2.47,0,0,0,3.07,1.45A3.76,3.76,0,0,0,253,100l1.4,1.27a5.72,5.72,0,0,1-3.39,2.13A4.83,4.83,0,1,1,248.6,94Zm-1.28,4.38,4.41-1.06a2.13,2.13,0,0,0-2.68-1.45A2.2,2.2,0,0,0,247.32,98.37Z"/><path class="cls-13" d="M261.94,95.16a1.5,1.5,0,0,0-2-1.38,2.67,2.67,0,0,0-1.87,1.45l1.13,6.09-2.38.44-1.67-9.05,2.38-.44.22,1.18a4.21,4.21,0,0,1,2.9-2,2.69,2.69,0,0,1,3.48,2.35l1.18,6.39-2.38.44Z"/><path class="cls-13" d="M267.73,97.55l-.67-4.76-1.51.21-.3-2.09,1.51-.21-.35-2.49,2.42-.34.35,2.49L271,90.1l.29,2.09-1.85.26.58,4.12c.08.56.44,1,1,.88a1.36,1.36,0,0,0,.8-.38l.76,1.74a3,3,0,0,1-1.92.87A2.3,2.3,0,0,1,267.73,97.55Z"/><path class="cls-13" d="M74,277.22a5.55,5.55,0,0,0,2.13-3.83c.16-1.48-.46-2.27-1.18-2.35-1-.1-1.39,1-1.89,2.38-.69,2-1.55,4.61-4.37,4.3-2.1-.22-3.61-2.23-3.29-5.2a7.1,7.1,0,0,1,2.29-4.74l1.81,1.71A5.44,5.44,0,0,0,67.71,273c-.13,1.21.33,1.91,1.09,2s1.23-.94,1.73-2.37c.7-2,1.61-4.61,4.41-4.31,2.31.25,3.88,2.09,3.51,5.5a7.32,7.32,0,0,1-2.59,5.14Z"/><path class="cls-13" d="M70.34,261.48c.43-2.71,2.75-4.23,5.73-3.76l.52.08-1.06,6.76a2.48,2.48,0,0,0,2.52-2.28,3.79,3.79,0,0,0-.52-2.57l1.71-.82a5.72,5.72,0,0,1,.67,3.95,4.83,4.83,0,1,1-9.57-1.36Zm3.56,2.86.71-4.48a2.13,2.13,0,0,0-2.37,1.92A2.22,2.22,0,0,0,73.9,264.34Z"/><path class="cls-13" d="M71.68,255l.47-2.37,1.23.24a4,4,0,0,1-.87-3.16l2.32.45a3.09,3.09,0,0,0-.18.65,3,3,0,0,0,.57,2.42l6,1.18-.47,2.38Z"/><path class="cls-13" d="M72.77,249.36l.6-2.52,6.78-.86-5.68-3.82.6-2.54,8.11,5.72-.6,2.54Z"/><path class="cls-13" d="M72.68,237.91a1.47,1.47,0,0,1-1-1.78,1.45,1.45,0,1,1,2.8.76A1.47,1.47,0,0,1,72.68,237.91Zm2.77.49.63-2.33L85,238.48l-.64,2.33Z"/><path class="cls-13" d="M77.81,229.38a4.26,4.26,0,0,1,2.67-3l.94,2a2.27,2.27,0,0,0-1.52,1.56A2.68,2.68,0,0,0,85,231.47a2.3,2.3,0,0,0-.38-2.15l1.87-1.08a4.26,4.26,0,0,1,.54,4,4.83,4.83,0,1,1-9.24-2.83Z"/><path class="cls-13" d="M80.87,220.21c.92-2.58,3.48-3.65,6.32-2.64l.5.18-2.3,6.44a2.48,2.48,0,0,0,2.9-1.78,3.75,3.75,0,0,0,0-2.62l1.83-.48a5.69,5.69,0,0,1-.07,4,4.83,4.83,0,1,1-9.15-3.1Zm3,3.47,1.52-4.28a2.13,2.13,0,0,0-2.68,1.46A2.21,2.21,0,0,0,83.84,223.68Z"/><path class="cls-13" d="M98.07,203.07l-1.25,2.83c-.33.14-.78.3-1.25.49a5.62,5.62,0,0,1-.31,3.63c-1,2.14-2.82,3.36-5.07,2.37-1.78-.79-2.16-2.37-2.26-4a6,6,0,0,1-2.83-.33c-1.57-.69-2.18-2.61-1.33-4.54.73-1.66,2.26-2.67,3.81-2,1.78.79,1.9,2.55,1.93,4.27.63-.14,1.22-.3,1.7-.44s1.09-.31,1.62-.47a10,10,0,0,0-1.78-2.06l1.6-1.41a16.5,16.5,0,0,1,2.1,2.86C95.8,203.91,96.89,203.52,98.07,203.07Zm-10.17,3c0-1.18-.19-2.15-1.05-2.53a1,1,0,0,0-1.42.58,1.3,1.3,0,0,0,.7,1.77A3.69,3.69,0,0,0,87.9,206.05Zm5.87,1c-.81.27-1.56.52-2,.65-.64.17-1.34.34-2,.49A2.32,2.32,0,0,0,91,209.94a1.92,1.92,0,0,0,2.62-1A3,3,0,0,0,93.77,207Z"/><path class="cls-13" d="M102.67,189.48l-2.7,5,1.55,1.74-1.41,2.62-8.86-10.36,1.61-3,13.52,1.72-1.4,2.6Zm-4.42,3.25,2-3.71-6.13-.92Z"/><path class="cls-13" d="M104.58,184.7a5.3,5.3,0,0,0,2.72-2.08c.55-.89.49-1.5,0-1.8s-1.16.23-1.88,1c-1.08,1.2-2.46,2.74-4.34,1.61-1.32-.8-1.78-2.66-.52-4.73a5.7,5.7,0,0,1,3-2.51l.92,1.67a3.9,3.9,0,0,0-2.32,1.78c-.46.75-.48,1.41,0,1.68s1.05-.21,1.76-1c1.08-1.2,2.53-2.79,4.49-1.61,1.45.88,1.79,2.75.46,4.94a6.16,6.16,0,0,1-3.35,2.78Z"/><path class="cls-13" d="M109.33,177a5.27,5.27,0,0,0,2.81-2c.58-.87.55-1.49.07-1.8s-1.17.18-1.92.94c-1.13,1.15-2.57,2.64-4.4,1.43-1.29-.85-1.67-2.73-.33-4.75a5.8,5.8,0,0,1,3.09-2.39l.85,1.72a3.86,3.86,0,0,0-2.39,1.68c-.49.73-.53,1.38-.09,1.68s1.06-.17,1.8-.92c1.13-1.15,2.64-2.68,4.55-1.42,1.41.94,1.67,2.83.26,5a6.22,6.22,0,0,1-3.46,2.64Z"/><path class="cls-13" d="M111.41,162.4c1.61-2.22,4.37-2.52,6.81-.75l.43.32-4,5.53a2.47,2.47,0,0,0,3.28-.89,3.75,3.75,0,0,0,.71-2.52l1.89,0a5.71,5.71,0,0,1-1.2,3.82,4.83,4.83,0,1,1-7.9-5.56Zm1.87,4.17L116,162.9a2.14,2.14,0,0,0-3,.63A2.23,2.23,0,0,0,113.28,166.57Z"/><path class="cls-13" d="M121.27,161.16l-3.77-3-.94,1.2-1.67-1.31,1-1.2-2-1.56,1.51-1.91,2,1.55,1.15-1.46,1.66,1.31L119,156.27l3.26,2.57a.88.88,0,0,0,1.31,0,1.26,1.26,0,0,0,.31-.83l1.76.73a3,3,0,0,1-.79,1.95A2.3,2.3,0,0,1,121.27,161.16Z"/><path class="cls-13" d="M90.82,266.16l8.6,4.74-.15,1.17-9.54,2.37,9.07,1.18-.35,2.69-12.6-1.65.49-3.77,8.26-2-7.46-4.09.5-3.77,12.6,1.65-.35,2.7Z"/><path class="cls-13" d="M100.84,256.82a3.81,3.81,0,0,1,.6,3.09,3.07,3.07,0,0,1-3.62,2.54,2.91,2.91,0,0,1-2.25-3.71,3.69,3.69,0,0,1,1.67-2.64L96,255.85c-.91-.18-1.67.49-1.9,1.68a3.83,3.83,0,0,0,.54,2.85l-1.77.58a6,6,0,0,1-.64-4.22c.41-2.06,1.61-3.79,4.21-3.27l5.83,1.16-.47,2.37Zm-2.35-.47a2.41,2.41,0,0,0-1.16,1.75,1.52,1.52,0,0,0,1,2c.84.17,1.48-.5,1.67-1.44a2.42,2.42,0,0,0-.41-2.06Z"/><path class="cls-13" d="M98.87,245.06a1.49,1.49,0,0,0-2.08,1.22,2.59,2.59,0,0,0,.54,2.3l6,1.52-.6,2.35-8.92-2.26.6-2.35,1.16.3a4.23,4.23,0,0,1-.59-3.48,2.67,2.67,0,0,1,3.58-2.18l6.3,1.6-.6,2.35Z"/><path class="cls-13" d="M106.2,236.38a3.82,3.82,0,0,1,.26,3.14,3.06,3.06,0,0,1-3.86,2.15,2.91,2.91,0,0,1-1.85-3.93,3.7,3.7,0,0,1,1.94-2.45l-1.22-.38c-.9-.27-1.72.31-2.08,1.47a3.89,3.89,0,0,0,.24,2.89l-1.82.4a6.05,6.05,0,0,1-.19-4.27c.63-2,2-3.6,4.53-2.81l5.68,1.76-.72,2.32Zm-2.29-.71a2.46,2.46,0,0,0-1.35,1.62,1.53,1.53,0,0,0,.82,2.07c.82.25,1.52-.35,1.81-1.26A2.42,2.42,0,0,0,105,236Z"/><path class="cls-13" d="M109.42,231.6a3.63,3.63,0,0,0,2.07-2.3,2.25,2.25,0,0,0-1.3-3.19l-.87-.32a3.59,3.59,0,0,1,.37,3.16c-.8,2.17-2.93,3.25-5.81,2.19s-3.79-3.26-3-5.44a3.55,3.55,0,0,1,2.31-2.17l-1.11-.41.85-2.29,8,3c3.29,1.22,3.15,4.06,2.36,6.18a5.55,5.55,0,0,1-2.66,3.25Zm-4.54-7.45a2.61,2.61,0,0,0-1.7,1.58,2.54,2.54,0,0,0,4.75,1.76,2.65,2.65,0,0,0-.26-2.31Z"/><path class="cls-13" d="M105.41,214.38c1.09-2.52,3.72-3.42,6.49-2.22l.49.21-2.72,6.28a2.48,2.48,0,0,0,3-1.58,3.77,3.77,0,0,0,.14-2.62l1.85-.36a5.65,5.65,0,0,1-.33,4,4.83,4.83,0,1,1-8.93-3.7Zm2.74,3.65,1.8-4.16a2.13,2.13,0,0,0-2.77,1.27A2.21,2.21,0,0,0,108.15,218Z"/><path class="cls-13" d="M116.54,199.66a1.28,1.28,0,0,0-1.94.55,2.46,2.46,0,0,0,.08,2.18l5.53,2.84-1.11,2.17-5.17-2.66a1.28,1.28,0,0,0-1.94.55,2.51,2.51,0,0,0,.1,2.2l5.51,2.82-1.11,2.16-8.19-4.21,1.11-2.15,1.07.55a4,4,0,0,1,.1-3.33,2.44,2.44,0,0,1,2.66-1.51,3.92,3.92,0,0,1,0-3.58,2.46,2.46,0,0,1,3.72-1.13l5.91,3-1.11,2.17Z"/><path class="cls-13" d="M118,189.85c1.41-2.35,4.13-2.89,6.72-1.34l.45.27-3.52,5.87a2.48,2.48,0,0,0,3.2-1.17,3.82,3.82,0,0,0,.48-2.58l1.89-.11a5.74,5.74,0,0,1-.86,3.91,4.83,4.83,0,1,1-8.36-4.85Zm2.23,4,2.33-3.89a2.13,2.13,0,0,0-2.91.89A2.21,2.21,0,0,0,120.26,193.84Z"/><path class="cls-13" d="M128.22,181.16a1.49,1.49,0,0,0-2.37.44,2.62,2.62,0,0,0-.27,2.35l5.13,3.47-1.36,2-7.62-5.15,1.35-2,1,.67a4.15,4.15,0,0,1,.62-3.46,2.67,2.67,0,0,1,4.1-.84l5.39,3.64-1.36,2Z"/><path class="cls-13" d="M134,178.71l-3.86-2.86-.91,1.22-1.7-1.26.91-1.22-2-1.5,1.45-2,2,1.5,1.11-1.5,1.7,1.26-1.11,1.5,3.34,2.47a.88.88,0,0,0,1.31-.07,1.36,1.36,0,0,0,.29-.84l1.77.68a2.94,2.94,0,0,1-.72,2A2.31,2.31,0,0,1,134,178.71Z"/><path class="cls-13" d="M350.29,70.15,359,72.33l-.56,2.25-6.1-1.52-.67,2.68,6,1.49-.56,2.26-6-1.49-1.29,5.14-2.62-.66Z"/><path class="cls-13" d="M360.12,76.31l2.33.67-2.54,8.85-2.33-.67Zm.54-2.76a1.45,1.45,0,1,1,1,1.79A1.45,1.45,0,0,1,360.66,73.55Z"/><path class="cls-13" d="M369.74,83.08a1.49,1.49,0,0,0-1.08-2.16,2.64,2.64,0,0,0-2.33.38l-1.92,5.89-2.3-.74L365,77.69l2.3.75-.37,1.14a4.26,4.26,0,0,1,3.5-.36,2.67,2.67,0,0,1,1.94,3.72l-2,6.18-2.3-.75Z"/><path class="cls-13" d="M377.94,91a3.83,3.83,0,0,1-3.14.07,3.06,3.06,0,0,1-1.91-4,2.91,2.91,0,0,1,4-1.61,3.74,3.74,0,0,1,2.33,2.09l.45-1.2c.33-.87-.2-1.72-1.34-2.16a3.89,3.89,0,0,0-2.9.06l-.28-1.84a6.12,6.12,0,0,1,4.28.08c2,.74,3.46,2.21,2.52,4.69l-2.11,5.56-2.27-.86Zm.86-2.25a2.46,2.46,0,0,0-1.54-1.44,1.52,1.52,0,0,0-2.11.69c-.31.8.25,1.54,1.14,1.88a2.4,2.4,0,0,0,2.1-.06Z"/><path class="cls-13" d="M389.87,90.92a1.5,1.5,0,0,0-.87-2.25,2.62,2.62,0,0,0-2.36.16l-2.47,5.67-2.22-1,3.68-8.44,2.22,1-.48,1.1a4.21,4.21,0,0,1,3.52,0A2.68,2.68,0,0,1,392.46,91l-2.6,6-2.22-1Z"/><path class="cls-13" d="M399.93,91.39a4.23,4.23,0,0,1,2.53,3.11l-2.07.62a2.27,2.27,0,0,0-1.31-1.75,2.69,2.69,0,0,0-2.36,4.81,2.33,2.33,0,0,0,2.18,0l.77,2a4.26,4.26,0,0,1-4-.1,4.83,4.83,0,1,1,4.27-8.67Z"/><path class="cls-13" d="M404.64,94l2.13,1.14-4.33,8.13-2.13-1.14Zm1.09-2.59a1.46,1.46,0,0,1,2-.59,1.45,1.45,0,1,1-1.36,2.55A1.46,1.46,0,0,1,405.73,91.45Z"/><path class="cls-13" d="M409.74,106.32a3.82,3.82,0,0,1-3.12-.44,3.06,3.06,0,0,1-1.25-4.24,2.92,2.92,0,0,1,4.24-.94,3.73,3.73,0,0,1,2,2.43l.63-1.1c.47-.81.08-1.74-1-2.35a3.83,3.83,0,0,0-2.87-.4V97.42a6,6,0,0,1,4.21.75c1.82,1,3.06,2.74,1.74,5l-3,5.14-2.09-1.21Zm1.2-2.08a2.43,2.43,0,0,0-1.29-1.67,1.52,1.52,0,0,0-2.19.34c-.43.74,0,1.56.82,2a2.43,2.43,0,0,0,2.08.28Z"/><path class="cls-13" d="M420,98.8l2,1.28-6.73,10.78-2.05-1.28Z"/><path class="cls-13" d="M333.84,91.57l-4.93,8.49-1.17-.18-2.15-9.58-1.39,9-2.67-.41,1.93-12.57,3.75.58,1.84,8.31,4.26-7.37,3.77.58L335.14,101l-2.69-.42Z"/><path class="cls-13" d="M343,101.81a3.83,3.83,0,0,1-3.11.52,3.07,3.07,0,0,1-2.46-3.68,2.92,2.92,0,0,1,3.76-2.17,3.73,3.73,0,0,1,2.6,1.74L344,97c.2-.91-.45-1.68-1.64-2a3.89,3.89,0,0,0-2.86.48L339,93.72a6,6,0,0,1,4.24-.54c2,.45,3.75,1.69,3.17,4.28l-1.29,5.8-2.36-.52Zm.52-2.35a2.42,2.42,0,0,0-1.73-1.2,1.51,1.51,0,0,0-2,1c-.19.84.47,1.49,1.4,1.7a2.43,2.43,0,0,0,2.07-.36Z"/><path class="cls-13" d="M354.75,100.1A1.5,1.5,0,0,0,353.58,98a2.59,2.59,0,0,0-2.31.49l-1.66,6-2.33-.65,2.46-8.86,2.33.64-.32,1.16a4.21,4.21,0,0,1,3.49-.51,2.68,2.68,0,0,1,2.09,3.63l-1.74,6.26-2.33-.65Z"/><path class="cls-13" d="M363.27,107.62a3.79,3.79,0,0,1-3.14.2,3.08,3.08,0,0,1-2.07-3.91,2.93,2.93,0,0,1,4-1.77,3.72,3.72,0,0,1,2.41,2l.41-1.21c.29-.89-.27-1.72-1.43-2.11a3.88,3.88,0,0,0-2.89.18l-.35-1.83a6,6,0,0,1,4.27-.09c2,.66,3.55,2.07,2.7,4.58l-1.89,5.64-2.29-.77Zm.76-2.27a2.42,2.42,0,0,0-1.58-1.38,1.53,1.53,0,0,0-2.09.77c-.27.81.31,1.53,1.21,1.83a2.42,2.42,0,0,0,2.1-.14Z"/><path class="cls-13" d="M368,111a3.65,3.65,0,0,0,2.25,2.12,2.24,2.24,0,0,0,3.21-1.23l.35-.87a3.59,3.59,0,0,1-3.18.31c-2.14-.85-3.17-3-2-5.86s3.34-3.72,5.5-2.86a3.58,3.58,0,0,1,2.12,2.36l.43-1.1,2.27.9-3.16,8c-1.29,3.26-4.12,3.06-6.23,2.22a5.53,5.53,0,0,1-3.18-2.73Zm7.55-4.37a2.64,2.64,0,0,0-1.55-1.74,2.54,2.54,0,0,0-1.86,4.71,2.62,2.62,0,0,0,2.31-.21Z"/><path class="cls-13" d="M385.28,107.33c2.49,1.15,3.33,3.8,2.07,6.54l-.22.48-6.22-2.85a2.49,2.49,0,0,0,1.52,3,3.76,3.76,0,0,0,2.61.2l.32,1.86a5.65,5.65,0,0,1-4-.42,4.84,4.84,0,0,1,3.9-8.85ZM381.56,110l4.13,1.89a2.14,2.14,0,0,0-1.21-2.8A2.24,2.24,0,0,0,381.56,110Z"/><path class="cls-13" d="M399.75,118.8a1.28,1.28,0,0,0-.5-2,2.46,2.46,0,0,0-2.19,0l-3,5.46L392,121.18l2.78-5.11a1.28,1.28,0,0,0-.51-1.94,2.46,2.46,0,0,0-2.19,0l-3,5.45-2.13-1.16,4.39-8.09,2.13,1.15-.57,1.06a4,4,0,0,1,3.33.18,2.43,2.43,0,0,1,1.44,2.69,3.89,3.89,0,0,1,3.58,0,2.45,2.45,0,0,1,1.06,3.73l-3.18,5.85L397,123.91Z"/><path class="cls-13" d="M409.51,120.51c2.32,1.46,2.8,4.2,1.19,6.74l-.29.46-5.78-3.66a2.49,2.49,0,0,0,1.1,3.22,3.72,3.72,0,0,0,2.56.54l.07,1.89a5.63,5.63,0,0,1-3.89-.95,4.83,4.83,0,1,1,5-8.24Zm-4,2.13,3.84,2.43a2.14,2.14,0,0,0-.83-2.94A2.22,2.22,0,0,0,405.47,122.64Z"/><path class="cls-13" d="M418,130.88a1.5,1.5,0,0,0-.4-2.38,2.6,2.6,0,0,0-2.33-.32l-3.59,5-2-1.4,5.32-7.51,2,1.4-.7,1a4.25,4.25,0,0,1,3.46.7,2.68,2.68,0,0,1,.74,4.12l-3.76,5.3-2-1.4Z"/><path class="cls-13" d="M420.28,136.7l3-3.79L422,132l1.3-1.67,1.2.94,1.55-2,1.92,1.5-1.54,2,1.48,1.15-1.3,1.67-1.48-1.15-2.54,3.29a.88.88,0,0,0,0,1.31,1.34,1.34,0,0,0,.83.3l-.72,1.76a3,3,0,0,1-2-.77A2.3,2.3,0,0,1,420.28,136.7Z"/><path class="cls-13" d="M491.37,179.07a6.44,6.44,0,0,1,9,2.48,5.87,5.87,0,0,1,0,6.24l-2.16-1.44a3.48,3.48,0,0,0,.06-3.6,4.19,4.19,0,0,0-7.23,4.18,3.46,3.46,0,0,0,3.15,1.75l.19,2.58a5.91,5.91,0,0,1-5.42-3.13A6.42,6.42,0,0,1,491.37,179.07Z"/><path class="cls-13" d="M496.4,199a4.27,4.27,0,0,1-2.71-2.26,2.63,2.63,0,0,1,1.23-4l5.83-3,1.1,2.16-5,2.53a1.48,1.48,0,0,0-.74,2.28,2.7,2.7,0,0,0,1.88,1.39l5.56-2.82,1.1,2.15-8.21,4.18-1.1-2.16Z"/><path class="cls-13" d="M500.15,202.73a5.34,5.34,0,0,0,.17,3.42c.43.95,1,1.25,1.49,1s.47-1.1.23-2.14c-.38-1.56-.87-3.58,1.12-4.48,1.41-.64,3.2,0,4.2,2.24a5.82,5.82,0,0,1,.38,3.89l-1.91-.19a3.85,3.85,0,0,0-.15-2.92c-.36-.8-.89-1.19-1.38-1s-.41,1-.18,2c.38,1.57.87,3.67-1.21,4.61-1.55.7-3.28-.08-4.34-2.41a6.17,6.17,0,0,1-.39-4.34Z"/><path class="cls-13" d="M503.35,211.47l4.45-1.83-.59-1.41,2-.8.58,1.41,2.33-1,.93,2.26-2.33,1,.71,1.73-2,.8-.71-1.72-3.84,1.58c-.53.22-.82.66-.61,1.16a1.3,1.3,0,0,0,.56.67l-1.49,1.17a3,3,0,0,1-1.32-1.64A2.3,2.3,0,0,1,503.35,211.47Z"/><path class="cls-13" d="M507.59,215.6a4.87,4.87,0,1,1-2.88,6.23A4.67,4.67,0,0,1,507.59,215.6Zm2.48,6.78a2.37,2.37,0,1,0-3.33-1.29A2.43,2.43,0,0,0,510.07,222.38Z"/><path class="cls-13" d="M516,237.11a1.26,1.26,0,0,0,1-1.73,2.41,2.41,0,0,0-1.56-1.52l-6,1.78-.7-2.34,5.57-1.67a1.27,1.27,0,0,0,1-1.73,2.49,2.49,0,0,0-1.59-1.52l-5.93,1.78-.7-2.32L516,225.2l.69,2.32-1.15.35a4,4,0,0,1,2.23,2.47,2.43,2.43,0,0,1-.88,2.93,3.89,3.89,0,0,1,2.51,2.55,2.45,2.45,0,0,1-1.89,3.39l-6.37,1.9-.7-2.33Z"/><path class="cls-13" d="M521.76,245.17c.62,2.67-1,5-3.89,5.65l-.52.12-1.56-6.66a2.47,2.47,0,0,0-1.47,3.06,3.76,3.76,0,0,0,1.45,2.19l-1.28,1.39a5.68,5.68,0,0,1-2.11-3.4,4.83,4.83,0,1,1,9.38-2.35Zm-4.38-1.3,1,4.41a2.12,2.12,0,0,0,1.47-2.67A2.2,2.2,0,0,0,517.38,243.87Z"/><path class="cls-13" d="M523,251.66l.46,2.38-1.24.24a3.94,3.94,0,0,1,2,2.6l-2.32.45a2.9,2.9,0,0,0-.07-.66,3.08,3.08,0,0,0-1.44-2l-6,1.16-.46-2.38Z"/><path class="cls-13" d="M465.75,181.11l-1.13-1.62-3.74,2.59-1.55-2.22,10.45-7.25,3.39,4.89a4,4,0,0,1-.94,5.84,3.65,3.65,0,0,1-4.68-.13l-2.35,5.1-1.77-2.55ZM471,178.5l-1.62-2.34-2.88,2,1.62,2.33a1.76,1.76,0,1,0,2.88-2Z"/><path class="cls-13" d="M476,187.9c1.44,2.34.67,5-1.89,6.59l-.45.28-3.6-5.82a2.47,2.47,0,0,0-.42,3.37,3.74,3.74,0,0,0,2.07,1.61l-.77,1.73a5.67,5.67,0,0,1-3.08-2.55A4.83,4.83,0,1,1,476,187.9Zm-4.56.15,2.38,3.86a2.12,2.12,0,0,0,.54-3A2.21,2.21,0,0,0,471.46,188.05Z"/><path class="cls-13" d="M482.25,192l1.2,2.11-11.07,6.27-1.19-2.11Z"/><path class="cls-13" d="M476.91,206.79a3.81,3.81,0,0,1-2.39-2,3.07,3.07,0,0,1,1.24-4.24,2.92,2.92,0,0,1,4.08,1.49,3.73,3.73,0,0,1,.34,3.11l1.13-.59c.83-.43,1-1.42.44-2.5a3.83,3.83,0,0,0-2.2-1.89l1-1.56a6.07,6.07,0,0,1,3.14,2.91c1,1.86,1.1,3.95-1.25,5.17l-5.28,2.74-1.11-2.15Zm2.14-1.1a2.43,2.43,0,0,0-.19-2.1,1.41,1.41,0,1,0-2.44,1.26,2.41,2.41,0,0,0,1.61,1.36Z"/><path class="cls-13" d="M480.41,210.89l4.36-2-.65-1.38,1.92-.9.64,1.39L489,206.9l1,2.21-2.28,1.07.79,1.69-1.92.9-.79-1.7L482,212.83a.89.89,0,0,0-.56,1.19,1.34,1.34,0,0,0,.6.64l-1.44,1.24a3,3,0,0,1-1.39-1.58A2.3,2.3,0,0,1,480.41,210.89Z"/><path class="cls-13" d="M489.23,213.54l1,2.22-8.44,3.66-1-2.22Zm2.47-1.34a1.46,1.46,0,0,1,1.91.76,1.45,1.45,0,0,1-2.66,1.15A1.47,1.47,0,0,1,491.7,212.2Z"/><path class="cls-13" d="M486.75,219.28a4.87,4.87,0,1,1-2.76,6.28A4.66,4.66,0,0,1,486.75,219.28Zm2.61,6.73a2.37,2.37,0,1,0-3.36-1.23A2.42,2.42,0,0,0,489.36,226Z"/><path class="cls-13" d="M493.72,235.75a1.5,1.5,0,0,0,1.1-2.15,2.61,2.61,0,0,0-1.68-1.65l-5.89,1.92-.75-2.3,8.75-2.86L496,231l-1.14.38a4.21,4.21,0,0,1,2.36,2.62,2.67,2.67,0,0,1-1.87,3.75l-6.18,2-.75-2.31Z"/><path class="cls-13" d="M492.65,241.41a5.27,5.27,0,0,0-.38,3.4c.27,1,.75,1.39,1.31,1.24s.63-1,.56-2.07c-.12-1.6-.29-3.67,1.83-4.24,1.49-.41,3.15.54,3.78,2.88a5.82,5.82,0,0,1-.24,3.9l-1.85-.49a3.88,3.88,0,0,0,.31-2.91c-.23-.85-.69-1.31-1.2-1.17s-.57.9-.5,2c.12,1.61.27,3.76-1.94,4.36-1.63.44-3.22-.61-3.89-3.07a6.2,6.2,0,0,1,.3-4.35Z"/><path class="cls-13" d="M498.91,255.45a1.47,1.47,0,0,0,1.27-2,2.69,2.69,0,0,0-1.51-1.82l-6.05,1.33-.52-2.37,12.42-2.71.52,2.36-4.6,1a4.29,4.29,0,0,1,2.09,2.86,2.65,2.65,0,0,1-2.19,3.54L494,259l-.52-2.36Z"/><path class="cls-13" d="M503.39,259.64l.43,2.38-9.07,1.61-.42-2.38Zm2.72-.73a1.45,1.45,0,1,1-1.18,1.67A1.46,1.46,0,0,1,506.11,258.91Z"/><path class="cls-13" d="M491.69,266.34l12.6-1.73.33,2.4-1.15.16a3.56,3.56,0,0,1,1.76,2.62c.32,2.34-1.18,4.28-4.22,4.7s-5-1-5.35-3.38a3.53,3.53,0,0,1,1-3l-4.65.64Zm11.3,3a2.72,2.72,0,0,0-1.32-1.92l-3.23.45a2.75,2.75,0,0,0-.75,2.2c.19,1.38,1.39,2.15,3,1.94A2.39,2.39,0,0,0,503,269.33Z"/><path class="cls-13" d="M449.94,185.46l-9.43,2.76-.73-.94,5.05-8.43-7.24,5.59-1.65-2.14L446,174.53l2.32,3-4.39,7.29,8.16-2.4,2.33,3-10.06,7.77-1.66-2.16Z"/><path class="cls-13" d="M449.43,199.17a3.8,3.8,0,0,1-2.59-1.78,3.06,3.06,0,0,1,.77-4.35,2.91,2.91,0,0,1,4.21,1.05,3.7,3.7,0,0,1,.68,3l1.06-.71c.78-.51.85-1.52.17-2.53a3.85,3.85,0,0,0-2.39-1.64l.85-1.66a6.05,6.05,0,0,1,3.43,2.55c1.15,1.75,1.52,3.82-.69,5.28l-5,3.28-1.33-2Zm2-1.33a2.4,2.4,0,0,0-.4-2.06,1.53,1.53,0,0,0-2.12-.68,1.51,1.51,0,0,0-.17,2.2,2.42,2.42,0,0,0,1.74,1.18Z"/><path class="cls-13" d="M459.08,206.16a1.5,1.5,0,0,0,.63-2.33,2.63,2.63,0,0,0-2-1.27l-5.35,3.11-1.22-2.09,8-4.63,1.22,2.1-1,.6a4.25,4.25,0,0,1,2.86,2.07,2.68,2.68,0,0,1-1,4.06l-5.62,3.27-1.21-2.1Z"/><path class="cls-13" d="M459.89,217.51a3.76,3.76,0,0,1-2.37-2.07,3.06,3.06,0,0,1,1.27-4.23,2.92,2.92,0,0,1,4.07,1.53,3.71,3.71,0,0,1,.31,3.11l1.14-.58c.83-.42,1-1.41.47-2.5a3.9,3.9,0,0,0-2.19-1.9l1-1.55a6,6,0,0,1,3.1,2.93c.95,1.88,1.07,4-1.29,5.17l-5.31,2.68L459,217.94Zm2.14-1.08a2.42,2.42,0,0,0-.16-2.1,1.53,1.53,0,0,0-2-.92,1.52,1.52,0,0,0-.42,2.16,2.38,2.38,0,0,0,1.59,1.37Z"/><path class="cls-13" d="M460.87,223.15a3.7,3.7,0,0,0,.1,3.1,2.25,2.25,0,0,0,3.14,1.4l.86-.38a3.58,3.58,0,0,1-2.46-2c-.92-2.12-.13-4.37,2.68-5.6s5-.27,5.92,1.86a3.56,3.56,0,0,1-.16,3.17l1.08-.47,1,2.23-7.87,3.42c-3.21,1.4-5.08-.74-6-2.82a5.57,5.57,0,0,1-.32-4.19Zm8.43,2.24a2.62,2.62,0,0,0,.14-2.32,2.54,2.54,0,0,0-4.65,2,2.7,2.7,0,0,0,1.79,1.49Z"/><path class="cls-13" d="M475.66,232.86c.94,2.58-.35,5-3.18,6.08l-.5.18-2.34-6.43a2.48,2.48,0,0,0-1.1,3.22,3.74,3.74,0,0,0,1.7,2l-1.1,1.53a5.64,5.64,0,0,1-2.5-3.12,4.83,4.83,0,1,1,9-3.46Zm-4.5-.77,1.56,4.26a2.13,2.13,0,0,0,1.13-2.83A2.21,2.21,0,0,0,471.16,232.09Z"/><path class="cls-13" d="M477.63,251.25a1.27,1.27,0,0,0,1-1.72,2.41,2.41,0,0,0-1.55-1.54l-6,1.69-.66-2.35,5.59-1.58a1.27,1.27,0,0,0,1-1.72,2.48,2.48,0,0,0-1.56-1.54l-6,1.69-.66-2.33,8.85-2.51.66,2.33-1.15.33a4,4,0,0,1,2.19,2.5,2.44,2.44,0,0,1-.91,2.92A3.88,3.88,0,0,1,481,250a2.45,2.45,0,0,1-1.94,3.36l-6.4,1.81-.66-2.34Z"/><path class="cls-13" d="M483.2,259.49c.55,2.69-1.09,4.94-4,5.54l-.53.11-1.37-6.7a2.48,2.48,0,0,0-1.56,3,3.78,3.78,0,0,0,1.39,2.23l-1.32,1.36a5.75,5.75,0,0,1-2-3.46,4.84,4.84,0,1,1,9.44-2.1Zm-4.34-1.42.91,4.44a2.13,2.13,0,0,0,1.54-2.63A2.21,2.21,0,0,0,478.86,258.07Z"/><path class="cls-13" d="M481.54,272.81a1.5,1.5,0,0,0,1.45-1.93,2.62,2.62,0,0,0-1.37-1.92l-6.13.89-.35-2.4,9.11-1.32.35,2.4-1.19.17a4.23,4.23,0,0,1,1.87,3,2.67,2.67,0,0,1-2.47,3.38l-6.44.93-.34-2.4Z"/><path class="cls-13" d="M478.91,278.49l4.78-.46-.15-1.52,2.11-.2.14,1.52,2.51-.25.23,2.43-2.5.24.18,1.86-2.11.2-.18-1.85-4.13.39c-.57.06-1,.4-.93.94a1.3,1.3,0,0,0,.35.8l-1.77.69a3,3,0,0,1-.79-1.95A2.3,2.3,0,0,1,478.91,278.49Z"/><path class="cls-13" d="M482.15,424.22l5.35,8.23-.69,1L477.29,431l7.44,5.32-1.58,2.2-10.33-7.39L475,428l8.24,2.11L478.62,423l2.22-3.09,10.33,7.39-1.59,2.22Z"/><path class="cls-13" d="M494.89,419.63a3.84,3.84,0,0,1-.56,3.1,3.07,3.07,0,0,1-4.28,1.09,2.93,2.93,0,0,1-.78-4.28,3.76,3.76,0,0,1,2.5-1.87l-1.08-.68c-.79-.49-1.73-.14-2.38.89a3.85,3.85,0,0,0-.51,2.85l-1.86-.09a6.05,6.05,0,0,1,.92-4.17c1.12-1.77,2.85-3,5.09-1.54l5,3.16-1.29,2.05Zm-2-1.28a2.45,2.45,0,0,0-1.72,1.22,1.52,1.52,0,0,0,.26,2.21c.72.46,1.56.06,2.06-.75a2.4,2.4,0,0,0,.36-2.07Z"/><path class="cls-13" d="M496.62,407.56a1.49,1.49,0,0,0-2.32.64,2.63,2.63,0,0,0-.09,2.36l5.39,3-1.19,2.11-8-4.53,1.19-2.1,1.05.59a4.19,4.19,0,0,1,.33-3.51,2.68,2.68,0,0,1,4-1.16l5.66,3.19-1.19,2.11Z"/><path class="cls-13" d="M505.59,400.37a3.8,3.8,0,0,1-.26,3.13,3.06,3.06,0,0,1-4.16,1.49,2.92,2.92,0,0,1-1.18-4.18,3.73,3.73,0,0,1,2.31-2.1l-1.14-.57c-.83-.42-1.73,0-2.28,1.11a3.89,3.89,0,0,0-.24,2.89l-1.86.09a6,6,0,0,1,.52-4.24c.94-1.88,2.55-3.22,4.92-2l5.31,2.67-1.09,2.16Zm-2.14-1.08a2.4,2.4,0,0,0-1.59,1.37,1.53,1.53,0,0,0,.46,2.18c.77.38,1.56-.09,2-.94a2.46,2.46,0,0,0,.16-2.1Z"/><path class="cls-13" d="M509.65,395.53a3.63,3.63,0,0,0,2.21-2.16,2.24,2.24,0,0,0-1.09-3.26l-.85-.38a3.6,3.6,0,0,1,.17,3.18c-.94,2.11-3.13,3-5.93,1.81s-3.58-3.49-2.64-5.61a3.55,3.55,0,0,1,2.44-2l-1.08-.48,1-2.23,7.84,3.48c3.2,1.42,2.89,4.24,2,6.31a5.59,5.59,0,0,1-2.87,3.07Zm-4-7.72a2.61,2.61,0,0,0-1.8,1.48,2.54,2.54,0,0,0,4.63,2,2.68,2.68,0,0,0-.12-2.32Z"/><path class="cls-13" d="M506.05,378.24c1-2.56,3.58-3.56,6.39-2.47l.5.19-2.47,6.38a2.48,2.48,0,0,0,2.95-1.7,3.75,3.75,0,0,0,0-2.62l1.84-.43a5.64,5.64,0,0,1-.18,4,4.83,4.83,0,1,1-9.06-3.34Zm2.88,3.55,1.64-4.23a2.12,2.12,0,0,0-2.72,1.38A2.21,2.21,0,0,0,508.93,381.79Z"/><path class="cls-13" d="M515.25,362.61a1.27,1.27,0,0,0-1.81.86,2.47,2.47,0,0,0,.43,2.14l5.92,1.89-.74,2.32-5.54-1.77a1.27,1.27,0,0,0-1.81.87,2.45,2.45,0,0,0,.45,2.14l5.9,1.88-.73,2.31-8.77-2.8.74-2.31,1.14.37a4.06,4.06,0,0,1-.45-3.3,2.44,2.44,0,0,1,2.38-1.92,3.91,3.91,0,0,1-.64-3.53A2.47,2.47,0,0,1,515.2,360l6.33,2-.74,2.33Z"/><path class="cls-13" d="M514.14,352.89c.67-2.66,3.13-4,6.05-3.22l.51.13L519,356.43a2.48,2.48,0,0,0,2.73-2,3.8,3.8,0,0,0-.28-2.6l1.77-.65a5.63,5.63,0,0,1,.3,4,4.83,4.83,0,1,1-9.39-2.24Zm3.28,3.18,1.12-4.4a2.13,2.13,0,0,0-2.54,1.69A2.23,2.23,0,0,0,517.42,356.07Z"/><path class="cls-13" d="M520.67,341.47a1.49,1.49,0,0,0-2,1.32,2.63,2.63,0,0,0,.65,2.27l6.06,1.24-.48,2.37-9-1.84.48-2.37,1.18.24a4.19,4.19,0,0,1-.76-3.44,2.68,2.68,0,0,1,3.47-2.35l6.37,1.3-.49,2.37Z"/><path class="cls-13" d="M524.88,336.7l-4.74-.78-.25,1.5-2.08-.34.24-1.5-2.48-.41.4-2.41,2.48.41.3-1.84,2.09.34-.3,1.84,4.09.68c.57.09,1-.14,1.13-.67a1.33,1.33,0,0,0-.12-.87l1.88-.21a3,3,0,0,1,.26,2.09A2.3,2.3,0,0,1,524.88,336.7Z"/><path class="cls-13" d="M479.64,400.92a5.6,5.6,0,0,0,3.44-2.73c.71-1.31.43-2.28-.2-2.63-.84-.45-1.65.36-2.66,1.49-1.41,1.59-3.19,3.67-5.68,2.31-1.86-1-2.49-3.44-1.06-6.07a7.06,7.06,0,0,1,3.93-3.51l1,2.27a5.47,5.47,0,0,0-3,2.54c-.58,1.07-.42,1.89.25,2.26s1.5-.4,2.5-1.53c1.42-1.61,3.25-3.65,5.73-2.3,2,1.11,2.79,3.4,1.15,6.42a7.35,7.35,0,0,1-4.36,3.77Z"/><path class="cls-13" d="M489.81,387.5a3.8,3.8,0,0,1-.19,3.14,3.06,3.06,0,0,1-4.13,1.57,2.92,2.92,0,0,1-1.27-4.15,3.75,3.75,0,0,1,2.27-2.15l-1.15-.55c-.84-.4-1.74.06-2.26,1.16a3.83,3.83,0,0,0-.18,2.89l-1.86.13a6,6,0,0,1,.43-4.25c.9-1.9,2.49-3.27,4.88-2.13l5.37,2.56-1.05,2.19Zm-2.16-1a2.44,2.44,0,0,0-1.57,1.41,1.53,1.53,0,0,0,.51,2.17c.78.36,1.56-.13,2-1a2.41,2.41,0,0,0,.12-2.1Z"/><path class="cls-13" d="M481.13,378.19l1-2.22,11.66,5-1,2.22Z"/><path class="cls-13" d="M487.55,371.22c1-2.56,3.59-3.55,6.4-2.46l.5.19L492,375.33a2.48,2.48,0,0,0,2.95-1.7,3.81,3.81,0,0,0,0-2.62l1.84-.43a5.73,5.73,0,0,1-.18,4,4.84,4.84,0,1,1-9.07-3.36Zm2.88,3.55,1.64-4.23a2.14,2.14,0,0,0-2.72,1.38A2.21,2.21,0,0,0,490.43,374.77Z"/><path class="cls-13" d="M496.05,367.15a5.21,5.21,0,0,0,2.2-2.62c.33-1,.15-1.57-.39-1.75s-1.09.48-1.62,1.4c-.79,1.41-1.8,3.22-3.88,2.53-1.46-.49-2.32-2.21-1.55-4.5a5.79,5.79,0,0,1,2.37-3.11l1.27,1.43a3.89,3.89,0,0,0-1.88,2.25c-.28.83-.15,1.47.35,1.64s1-.44,1.5-1.35c.79-1.4,1.86-3.27,4-2.55,1.61.54,2.35,2.29,1.54,4.72a6.27,6.27,0,0,1-2.66,3.45Z"/><path class="cls-13" d="M337.77,517.75l-2.08,9.6-1.17.19-5-8.46,1.46,9-2.68.43-2-12.55,3.74-.6,4.31,7.33,1.79-8.32,3.76-.6,2,12.55-2.69.43Z"/><path class="cls-13" d="M350,523.56a3.84,3.84,0,0,1-2.59,1.79,3.07,3.07,0,0,1-3.79-2.28,2.91,2.91,0,0,1,2.48-3.56,3.71,3.71,0,0,1,3.09.46l-.28-1.25c-.2-.91-1.12-1.33-2.31-1.06a3.88,3.88,0,0,0-2.38,1.65L343,517.92a6.08,6.08,0,0,1,3.61-2.29c2.05-.45,4.11-.06,4.69,2.53l1.3,5.8-2.37.53Zm-.53-2.34a2.4,2.4,0,0,0-2.07-.36c-.93.21-1.58.88-1.39,1.74s1.06,1.15,2,.94a2.41,2.41,0,0,0,1.72-1.21Z"/><path class="cls-13" d="M359.78,516.29a1.5,1.5,0,0,0-2.09-1.21,2.64,2.64,0,0,0-1.73,1.61l1.63,6-2.33.64-2.43-8.88,2.33-.64.32,1.16a4.19,4.19,0,0,1,2.72-2.23,2.69,2.69,0,0,1,3.67,2l1.72,6.26-2.34.65Z"/><path class="cls-13" d="M371.21,517.58a3.81,3.81,0,0,1-2.4,2,3.07,3.07,0,0,1-4-1.9,2.92,2.92,0,0,1,2.13-3.79,3.74,3.74,0,0,1,3.12.16l-.4-1.21c-.29-.89-1.24-1.22-2.4-.84a3.86,3.86,0,0,0-2.21,1.87l-1.38-1.26a6,6,0,0,1,3.38-2.62c2-.65,4.08-.45,4.9,2.06l1.85,5.65-2.3.76Zm-.74-2.28a2.45,2.45,0,0,0-2.1-.16c-.91.3-1.49,1-1.22,1.86a1.51,1.51,0,0,0,2.07.75,2.4,2.4,0,0,0,1.6-1.37Z"/><path class="cls-13" d="M377.49,517.06a3.65,3.65,0,0,0,3.1.05,2.25,2.25,0,0,0,1.54-3.08l-.33-.87a3.58,3.58,0,0,1-2.14,2.36c-2.16.83-4.37-.06-5.46-2.93s-.05-5,2.12-5.83a3.54,3.54,0,0,1,3.15.31l-.42-1.11,2.28-.87,3.06,8c1.25,3.28-1,5-3.09,5.85a5.57,5.57,0,0,1-4.2.13Zm2.62-8.32a2.62,2.62,0,0,0-2.31-.24,2.54,2.54,0,0,0,1.8,4.74,2.69,2.69,0,0,0,1.57-1.72Z"/><path class="cls-13" d="M387.25,502.31c2.51-1.1,5.05,0,6.26,2.8l.21.49-6.27,2.74a2.48,2.48,0,0,0,3.28.89,3.73,3.73,0,0,0,1.89-1.82l1.6,1a5.65,5.65,0,0,1-3,2.69,4.83,4.83,0,1,1-4-8.79Zm-.49,4.54,4.15-1.82a2.13,2.13,0,0,0-2.89-1A2.22,2.22,0,0,0,386.76,506.85Z"/><path class="cls-13" d="M404.82,497.83a1.27,1.27,0,0,0-1.89-.68,2.45,2.45,0,0,0-1.21,1.82l2.83,5.53-2.17,1.11-2.65-5.18a1.27,1.27,0,0,0-1.89-.68,2.48,2.48,0,0,0-1.2,1.84l2.82,5.51-2.15,1.1L393.12,500l2.15-1.1.55,1.07a4,4,0,0,1,2-2.65,2.44,2.44,0,0,1,3,.33,3.91,3.91,0,0,1,2.06-2.93,2.45,2.45,0,0,1,3.67,1.25l3,5.92L407.47,503Z"/><path class="cls-13" d="M410.92,490.19c2.37-1.39,5-.56,6.55,2l.27.46-5.89,3.47a2.47,2.47,0,0,0,3.36.5,3.81,3.81,0,0,0,1.66-2l1.71.81a5.66,5.66,0,0,1-2.62,3,4.83,4.83,0,1,1-5-8.25Zm.06,4.57,3.91-2.3a2.13,2.13,0,0,0-3-.61A2.22,2.22,0,0,0,411,494.76Z"/><path class="cls-13" d="M423.65,486.78a1.5,1.5,0,0,0-2.36-.51,2.66,2.66,0,0,0-1.16,2.06l3.4,5.18-2,1.33-5.05-7.7,2-1.33.66,1a4.2,4.2,0,0,1,1.91-3,2.67,2.67,0,0,1,4.11.81l3.57,5.43-2,1.33Z"/><path class="cls-13" d="M430,486.41l-2.78-3.92-1.25.89-1.22-1.72,1.24-.89-1.46-2,2-1.41,1.46,2.05,1.53-1.09,1.22,1.72-1.52,1.09,2.41,3.38a.89.89,0,0,0,1.27.34,1.29,1.29,0,0,0,.53-.71l1.48,1.19a3,3,0,0,1-1.3,1.66A2.31,2.31,0,0,1,430,486.41Z"/><path class="cls-13" d="M335.12,501a6.43,6.43,0,0,1,5.15-7.82,5.86,5.86,0,0,1,5.94,1.91l-2,1.6a3.51,3.51,0,0,0-3.41-1.16,4.19,4.19,0,0,0,1.74,8.17,3.48,3.48,0,0,0,2.64-2.46l2.51.62a5.92,5.92,0,0,1-4.65,4.19A6.43,6.43,0,0,1,335.12,501Z"/><path class="cls-13" d="M348.42,499.87a4.87,4.87,0,1,1,6,3.38A4.67,4.67,0,0,1,348.42,499.87Zm7-1.92a2.38,2.38,0,1,0-1.56,3.22A2.43,2.43,0,0,0,355.38,498Z"/><path class="cls-13" d="M365.31,493.82a1.49,1.49,0,0,0-2.15-1.09,2.62,2.62,0,0,0-1.65,1.69l2,5.88-2.29.77-2.92-8.74,2.3-.76.38,1.14a4.19,4.19,0,0,1,2.6-2.38,2.68,2.68,0,0,1,3.77,1.84l2.06,6.16-2.3.77Z"/><path class="cls-13" d="M371.56,495.06l-1.71-4.49-1.43.55-.75-2,1.42-.55-.9-2.34,2.28-.87.9,2.34,1.75-.66.75,2-1.74.66,1.48,3.88a.88.88,0,0,0,1.14.65,1.35,1.35,0,0,0,.69-.55l1.13,1.52a2.94,2.94,0,0,1-1.67,1.28A2.31,2.31,0,0,1,371.56,495.06Z"/><path class="cls-13" d="M374.62,486.45l2.23-.94.49,1.16a4,4,0,0,1,2.13-2.49l.92,2.18a2.77,2.77,0,0,0-.64.21,3,3,0,0,0-1.69,1.82l2.35,5.61-2.23.94Z"/><path class="cls-13" d="M389.4,488.92a3.81,3.81,0,0,1-2.13,2.31,3.08,3.08,0,0,1-4.2-1.4,2.92,2.92,0,0,1,1.65-4,3.73,3.73,0,0,1,3.12-.22l-.54-1.16c-.4-.84-1.39-1.05-2.49-.53a3.84,3.84,0,0,0-2,2.12L381.32,485a6.08,6.08,0,0,1,3-3c1.89-.89,4-.95,5.12,1.45l2.53,5.38-2.19,1Zm-1-2.17a2.4,2.4,0,0,0-2.1.1,1.41,1.41,0,1,0,1.17,2.48,2.43,2.43,0,0,0,1.42-1.55Z"/><path class="cls-13" d="M393.85,477.14a4.27,4.27,0,0,1,4-.22l-.71,2a2.28,2.28,0,0,0-2.18,0,2.68,2.68,0,0,0,2.51,4.73,2.31,2.31,0,0,0,1.25-1.78l2.09.55a4.26,4.26,0,0,1-2.43,3.19,4.84,4.84,0,1,1-4.54-8.54Z"/><path class="cls-13" d="M402.4,480.59,400,476.44l-1.32.77-1.06-1.83,1.31-.77-1.26-2.17,2.1-1.23,1.27,2.17,1.61-.94,1.07,1.83-1.61.94,2.09,3.59a.88.88,0,0,0,1.23.45,1.34,1.34,0,0,0,.59-.65l1.37,1.32a3,3,0,0,1-1.45,1.53A2.3,2.3,0,0,1,402.4,480.59Z"/><path class="cls-13" d="M177.23,482l5,3.15a4.08,4.08,0,1,1-4.32,6.92l-2.74-1.71-2.42,3.86-2.29-1.43Zm3.51,4.93-2.45-1.52-1.85,3,2.44,1.52a1.76,1.76,0,1,0,1.86-3Z"/><path class="cls-13" d="M187.17,488.08l2.1,1.2-6.32,11-2.1-1.21Z"/><path class="cls-13" d="M190.6,503.38a3.75,3.75,0,0,1-3.13-.32,3.05,3.05,0,0,1-1.4-4.19,2.91,2.91,0,0,1,4.2-1.09,3.7,3.7,0,0,1,2,2.35l.6-1.13c.43-.82,0-1.73-1.07-2.31a3.85,3.85,0,0,0-2.88-.29l-.05-1.86a6,6,0,0,1,4.23.6c1.85,1,3.16,2.62,1.92,5l-2.78,5.26-2.14-1.13Zm1.12-2.12a2.38,2.38,0,0,0-1.34-1.61,1.52,1.52,0,0,0-2.18.41c-.41.76.05,1.56.9,2a2.38,2.38,0,0,0,2.09.2Z"/><path class="cls-13" d="M202.77,504.21a1.5,1.5,0,0,0-.81-2.28,2.64,2.64,0,0,0-2.36.1l-2.63,5.6-2.19-1,3.91-8.34,2.19,1-.51,1.09a4.2,4.2,0,0,1,3.52.07,2.68,2.68,0,0,1,1.47,3.93l-2.76,5.88-2.19-1Z"/><path class="cls-13" d="M213,508.62a1.49,1.49,0,0,0-.91-2.23,2.61,2.61,0,0,0-2.36.21l-2.35,5.73-2.24-.92,3.5-8.52,2.24.92-.46,1.11a4.21,4.21,0,0,1,3.52-.1,2.68,2.68,0,0,1,1.66,3.85l-2.47,6-2.24-.92Z"/><path class="cls-13" d="M218.87,507l2.27.84L218,516.44l-2.27-.83Zm.74-2.71a1.46,1.46,0,0,1,1.86-.86,1.45,1.45,0,0,1-1,2.72A1.47,1.47,0,0,1,219.61,504.26Z"/><path class="cls-13" d="M228.11,514a1.5,1.5,0,0,0-1.07-2.16,2.61,2.61,0,0,0-2.33.38l-1.94,5.88-2.3-.76,2.88-8.74,2.3.76-.38,1.14a4.21,4.21,0,0,1,3.51-.35,2.67,2.67,0,0,1,1.92,3.72l-2,6.17-2.3-.75Z"/><path class="cls-13" d="M232.07,521.73a3.62,3.62,0,0,0,2.47,1.86A2.25,2.25,0,0,0,237.6,522l.25-.9a3.57,3.57,0,0,1-3.12.64c-2.23-.61-3.49-2.64-2.67-5.6s2.91-4.06,5.15-3.44a3.53,3.53,0,0,1,2.37,2.11l.31-1.14,2.35.65L240,522.62c-.94,3.38-3.77,3.49-6,2.88a5.56,5.56,0,0,1-3.46-2.37Zm7-5.16a2.59,2.59,0,0,0-1.72-1.56,2.54,2.54,0,0,0-1.35,4.88,2.66,2.66,0,0,0,2.28-.45Z"/><path class="cls-13" d="M177.72,458.14l4.84,3.45a4.08,4.08,0,1,1-4.73,6.64l-2.64-1.88-2.65,3.71-2.2-1.57Zm3.2,5.13-2.35-1.67-2,2.86,2.34,1.67a1.76,1.76,0,1,0,2-2.86Z"/><path class="cls-13" d="M185.34,467.74l2,1.31-.68,1.06a3.92,3.92,0,0,1,3.26.36l-1.28,2a4.73,4.73,0,0,0-.53-.41,3.09,3.09,0,0,0-2.47-.36l-3.3,5.1-2-1.31Z"/><path class="cls-13" d="M188.23,475.09a4.87,4.87,0,1,1,1.74,6.64A4.66,4.66,0,0,1,188.23,475.09Zm6.23,3.66a2.37,2.37,0,1,0-3.4,1.12A2.43,2.43,0,0,0,194.46,478.75Z"/><path class="cls-13" d="M202.41,486.93a3.61,3.61,0,0,1-3.16-.06c-2.07-1.07-2.82-3.43-1.41-6.16s3.76-3.51,5.84-2.43a3.55,3.55,0,0,1,1.88,2.55l2.15-4.16,2.17,1.12L204,489.08,201.88,488Zm2.33-4.5a2.7,2.7,0,0,0-1.39-1.9,2.7,2.7,0,0,0-2.45,4.76,2.64,2.64,0,0,0,2.34,0Z"/><path class="cls-13" d="M212.75,491.8a4.29,4.29,0,0,1-3.53-.06,2.64,2.64,0,0,1-1.53-3.86l2.68-6,2.21,1-2.29,5.1a1.48,1.48,0,0,0,.86,2.24,2.7,2.7,0,0,0,2.34-.1l2.55-5.68,2.21,1-3.77,8.4-2.21-1Z"/><path class="cls-13" d="M224.5,487.69a4.27,4.27,0,0,1,2.79,2.89l-2,.79a2.28,2.28,0,0,0-1.45-1.63,2.68,2.68,0,0,0-1.94,5,2.33,2.33,0,0,0,2.17-.22l.94,1.94a4.22,4.22,0,0,1-4,.24,4.83,4.83,0,1,1,3.5-9Z"/><path class="cls-13" d="M227.47,496.41l1.57-4.54-1.44-.5.69-2,1.44.5.82-2.38,2.31.8-.83,2.38,1.77.6-.69,2-1.77-.61L230,496.59a.88.88,0,0,0,.46,1.23,1.27,1.27,0,0,0,.88,0l-.11,1.9a3,3,0,0,1-2.1-.1A2.3,2.3,0,0,1,227.47,496.41Z"/><path class="cls-13" d="M235.35,491.77l2.31.72-2.76,8.78-2.31-.72ZM236,489a1.47,1.47,0,0,1,1.82-.95A1.45,1.45,0,1,1,236,489Z"/><path class="cls-13" d="M238.13,497.49a4.87,4.87,0,1,1,3.42,5.95A4.67,4.67,0,0,1,238.13,497.49Zm7,1.9a2.37,2.37,0,1,0-3,2A2.43,2.43,0,0,0,245.1,499.39Z"/><path class="cls-13" d="M255.73,500.88a1.5,1.5,0,0,0-1.3-2,2.62,2.62,0,0,0-2.27.62l-1.31,6.06-2.36-.51,1.93-9,2.37.51-.25,1.17A4.26,4.26,0,0,1,256,497a2.69,2.69,0,0,1,2.31,3.5l-1.37,6.36-2.37-.51Z"/><path class="cls-13" d="M78.2,341.12l-9.63-1.92-.2-1.16,8.37-5.13-9,1.6-.47-2.67,12.51-2.22.66,3.73-7.26,4.43,8.34,1.65.67,3.75-12.52,2.23-.47-2.69Z"/><path class="cls-13" d="M72.58,353.43a3.81,3.81,0,0,1-1.83-2.56A3.07,3.07,0,0,1,73,347a2.92,2.92,0,0,1,3.6,2.43,3.74,3.74,0,0,1-.41,3.1l1.24-.3c.91-.22,1.31-1.14,1-2.32a3.85,3.85,0,0,0-1.69-2.36l1.37-1.27a6,6,0,0,1,2.34,3.57c.49,2,.13,4.11-2.45,4.73L72.22,356l-.57-2.35Zm2.33-.56a2.42,2.42,0,0,0,.33-2.08c-.22-.93-.91-1.57-1.76-1.36s-1.13,1.07-.91,2a2.44,2.44,0,0,0,1.23,1.71Z"/><path class="cls-13" d="M80,363.11A1.5,1.5,0,0,0,81.18,361a2.65,2.65,0,0,0-1.63-1.71l-6,1.74-.68-2.33,8.84-2.57.68,2.32-1.16.34a4.21,4.21,0,0,1,2.28,2.69,2.68,2.68,0,0,1-2,3.69L75.34,367l-.68-2.32Z"/><path class="cls-13" d="M78.89,374.57a3.79,3.79,0,0,1-2.06-2.37,3.06,3.06,0,0,1,1.84-4,2.9,2.9,0,0,1,3.81,2.07,3.72,3.72,0,0,1-.11,3.12l1.21-.41c.88-.31,1.2-1.26.8-2.42a3.86,3.86,0,0,0-1.9-2.18l1.23-1.4a6,6,0,0,1,2.68,3.33c.68,2,.52,4.08-2,4.94l-5.62,1.94L78,374.88Zm2.27-.78a2.42,2.42,0,0,0,.13-2.1c-.31-.9-1.05-1.47-1.88-1.19a1.51,1.51,0,0,0-.72,2.08,2.46,2.46,0,0,0,1.39,1.58Z"/><path class="cls-13" d="M79.5,380.84a3.67,3.67,0,0,0,0,3.09,2.24,2.24,0,0,0,3.1,1.49l.86-.34a3.58,3.58,0,0,1-2.39-2.1c-.86-2.14,0-4.37,2.85-5.51s5-.13,5.85,2a3.55,3.55,0,0,1-.25,3.16l1.09-.43.91,2.26-8,3.18c-3.25,1.3-5-.9-5.89-3a5.55,5.55,0,0,1-.2-4.19Zm8.36,2.49a2.65,2.65,0,0,0,.21-2.32,2.55,2.55,0,0,0-4.71,1.88,2.65,2.65,0,0,0,1.74,1.54Z"/><path class="cls-13" d="M94.41,390.37c1.14,2.5,0,5.05-2.7,6.3l-.49.22-2.84-6.22a2.48,2.48,0,0,0-.84,3.29,3.8,3.8,0,0,0,1.85,1.86l-1,1.62a5.67,5.67,0,0,1-2.73-2.92,4.83,4.83,0,1,1,8.73-4.15ZM89.86,390l1.88,4.13a2.14,2.14,0,0,0,.92-2.91A2.22,2.22,0,0,0,89.86,390Z"/><path class="cls-13" d="M99.15,407.86a1.27,1.27,0,0,0,.66-1.9A2.45,2.45,0,0,0,98,404.78l-5.49,2.91-1.14-2.15,5.13-2.73a1.27,1.27,0,0,0,.65-1.9,2.44,2.44,0,0,0-1.85-1.17l-5.47,2.9-1.14-2.14,8.14-4.31,1.13,2.13-1.06.57a4,4,0,0,1,2.67,2,2.42,2.42,0,0,1-.28,3,3.93,3.93,0,0,1,3,2,2.46,2.46,0,0,1-1.19,3.69l-5.88,3.12L94,410.59Z"/><path class="cls-13" d="M106.89,413.86c1.43,2.34.64,5-1.93,6.58l-.45.27L101,414.87a2.49,2.49,0,0,0-.45,3.38,3.81,3.81,0,0,0,2.06,1.62l-.78,1.72A5.67,5.67,0,0,1,98.72,419a4.83,4.83,0,1,1,8.17-5.16Zm-4.56.13,2.36,3.87a2.14,2.14,0,0,0,.56-3A2.21,2.21,0,0,0,102.33,414Z"/><path class="cls-13" d="M110.49,426.51a1.49,1.49,0,0,0,.47-2.37,2.61,2.61,0,0,0-2.08-1.12l-5.13,3.47-1.35-2,7.62-5.17,1.36,2-1,.67a4.22,4.22,0,0,1,3,1.87,2.67,2.67,0,0,1-.75,4.12l-5.38,3.65-1.36-2Z"/><path class="cls-13" d="M111,432.86l3.87-2.84-.9-1.23,1.7-1.26.9,1.23,2-1.49,1.44,2-2,1.5,1.11,1.5-1.71,1.25-1.1-1.5-3.35,2.46a.9.9,0,0,0-.32,1.28,1.29,1.29,0,0,0,.72.51l-1.17,1.5a3,3,0,0,1-1.68-1.27A2.31,2.31,0,0,1,111,432.86Z"/><path class="cls-13" d="M90,323.05a5.56,5.56,0,0,0-1.13,4.24c.21,1.48,1,2.09,1.73,2,.94-.13,1.1-1.27,1.24-2.77.18-2.13.37-4.85,3.18-5.25,2.1-.29,4,1.28,4.47,4.24a7,7,0,0,1-1.06,5.15l-2.17-1.21a5.44,5.44,0,0,0,.87-3.8c-.18-1.21-.8-1.77-1.55-1.67s-1,1.22-1.1,2.72c-.17,2.14-.42,4.87-3.22,5.27-2.3.33-4.27-1.07-4.75-4.47a7.34,7.34,0,0,1,1.24-5.62Z"/><path class="cls-13" d="M90.18,340.53a4.31,4.31,0,0,1-2-2.91,2.64,2.64,0,0,1,2.26-3.48l6.42-1.27.47,2.38-5.48,1.08a1.49,1.49,0,0,0-1.34,2A2.74,2.74,0,0,0,92,340.18L98.07,339l.47,2.37-9,1.79L89,340.76Z"/><path class="cls-13" d="M86.72,346.72,99,343.6l.6,2.35-1.13.28a3.55,3.55,0,0,1,2,2.41c.58,2.3-.7,4.39-3.67,5.14s-5.11-.48-5.69-2.77a3.52,3.52,0,0,1,.67-3.1l-4.55,1.15Zm11.56,1.71a2.71,2.71,0,0,0-1.53-1.75l-3.16.8a2.79,2.79,0,0,0-.5,2.27,2.7,2.7,0,0,0,5.19-1.32Z"/><path class="cls-13" d="M89.69,358.12l12.14-3.78.72,2.31-1.11.35a3.55,3.55,0,0,1,2.17,2.3c.7,2.25-.46,4.41-3.39,5.32s-5.14-.19-5.84-2.45a3.55,3.55,0,0,1,.5-3.13l-4.47,1.39Zm11.64,1.09a2.71,2.71,0,0,0-1.62-1.67l-3.12,1a2.79,2.79,0,0,0-.38,2.29,2.71,2.71,0,0,0,5.12-1.59Z"/><path class="cls-13" d="M108.54,363.75l.81,2.28-12,4.25L96.56,368Z"/><path class="cls-13" d="M97.09,374.15c.24.58.55.91,1.1.94l.85,0,7.31-6.91,1,2.41-5.07,4.59,6.84-.12,1,2.42-11.55-.08A3.34,3.34,0,0,1,95.12,375a6.09,6.09,0,0,1-.32-1.17l2.16-.46A2,2,0,0,0,97.09,374.15Z"/><path class="cls-13" d="M109.59,383.66a6.43,6.43,0,0,1,8.84,3.08A5.87,5.87,0,0,1,118,393l-2-1.58a3.46,3.46,0,0,0,.29-3.59,4.19,4.19,0,0,0-7.49,3.69,3.46,3.46,0,0,0,3,1.95l0,2.58a5.9,5.9,0,0,1-5.19-3.48A6.42,6.42,0,0,1,109.59,383.66Z"/><path class="cls-13" d="M118.18,401.74a1.47,1.47,0,0,0,.61-2.32,2.71,2.71,0,0,0-2-1.29l-5.39,3.06-1.19-2.1,11-6.28,1.2,2.11-4.1,2.32a4.28,4.28,0,0,1,2.85,2.11,2.65,2.65,0,0,1-1,4l-5.68,3.23-1.2-2.1Z"/><path class="cls-13" d="M119.75,413.17a3.82,3.82,0,0,1-2.57-1.82A3.07,3.07,0,0,1,118,407a2.91,2.91,0,0,1,4.2,1.12,3.74,3.74,0,0,1,.63,3.06l1.07-.69c.79-.5.87-1.5.21-2.53a3.85,3.85,0,0,0-2.36-1.68l.87-1.64a6,6,0,0,1,3.39,2.6c1.13,1.77,1.46,3.84-.77,5.27l-5,3.2-1.31-2Zm2-1.29a2.44,2.44,0,0,0-.37-2.07,1.53,1.53,0,0,0-2.11-.71,1.51,1.51,0,0,0-.21,2.19,2.43,2.43,0,0,0,1.73,1.2Z"/><path class="cls-13" d="M129.35,412.7l1.38,2-7.57,5.24-1.38-2Zm2.16-1.8a1.45,1.45,0,1,1,1.65,2.38,1.45,1.45,0,0,1-1.65-2.38Z"/><path class="cls-13" d="M132.89,423.79a1.5,1.5,0,0,0,.35-2.39,2.62,2.62,0,0,0-2.13-1l-5,3.72-1.46-1.94,7.36-5.53,1.46,1.94-1,.72a4.22,4.22,0,0,1,3.07,1.71,2.68,2.68,0,0,1-.54,4.16l-5.2,3.91-1.45-1.94Z"/><path class="cls-13" d="M326.1,476l5.84-1.09a4.08,4.08,0,1,1,1.49,8l-3.18.6.83,4.47-2.66.5Zm5.91,1.27-2.83.52.64,3.45,2.83-.53a1.75,1.75,0,1,0-.64-3.44Z"/><path class="cls-13" d="M338.26,477.14l2.35-.56.29,1.22a4,4,0,0,1,2.52-2.1L344,478a4,4,0,0,0-.67.1,3.08,3.08,0,0,0-2,1.53l1.41,5.92-2.36.56Z"/><path class="cls-13" d="M345.58,480.14a4.87,4.87,0,1,1,6,3.3A4.68,4.68,0,0,1,345.58,480.14Zm6.94-2a2.37,2.37,0,1,0-1.52,3.24A2.44,2.44,0,0,0,352.52,478.13Z"/><path class="cls-13" d="M354.18,469.85a1.46,1.46,0,0,1,.91-1.84,1.45,1.45,0,0,1,.92,2.75A1.46,1.46,0,0,1,354.18,469.85Zm6.43,10.76c.67,2,.1,3.65-2,4.35a4.76,4.76,0,0,1-1,.24l-.48-1.92a3,3,0,0,0,.52-.12c.67-.22,1-.8.69-1.78l-3-9,2.29-.77Z"/><path class="cls-13" d="M363.66,469.2c2.57-1,5,.27,6.12,3.09l.19.49-6.39,2.45a2.5,2.5,0,0,0,3.24,1,3.79,3.79,0,0,0,2-1.74l1.56,1.08a5.66,5.66,0,0,1-3.09,2.55,4.83,4.83,0,1,1-3.6-9Zm-.7,4.51,4.24-1.62a2.13,2.13,0,0,0-2.85-1.09A2.21,2.21,0,0,0,363,473.71Z"/><path class="cls-13" d="M373.42,465.13a4.23,4.23,0,0,1,4,.05l-.85,2a2.3,2.3,0,0,0-2.18-.11,2.69,2.69,0,0,0,2.19,4.89,2.32,2.32,0,0,0,1.37-1.7l2,.7a4.25,4.25,0,0,1-2.64,3,4.83,4.83,0,1,1-3.94-8.82Z"/><path class="cls-13" d="M381.73,469.12l-2.14-4.3-1.37.69-.94-1.9,1.36-.68-1.13-2.25,2.19-1.09,1.12,2.25,1.67-.84.95,1.9-1.67.83,1.86,3.72a.88.88,0,0,0,1.2.52,1.32,1.32,0,0,0,.63-.61l1.28,1.41a3,3,0,0,1-1.55,1.43A2.3,2.3,0,0,1,381.73,469.12Z"/><path class="cls-13" d="M402.3,460.23l-2.65,1.59c-.36-.08-.81-.2-1.31-.33a5.52,5.52,0,0,1-2.34,2.79c-2,1.21-4.24,1.13-5.51-1-1-1.67-.4-3.18.46-4.57a6.13,6.13,0,0,1-2.13-1.9c-.88-1.47-.28-3.39,1.54-4.48,1.55-.93,3.38-.88,4.26.58,1,1.66.08,3.17-.89,4.6.6.24,1.17.45,1.64.61s1.07.38,1.6.55a9.77,9.77,0,0,0-.27-2.7l2.13-.24a16.64,16.64,0,0,1,.06,3.54C400,459.6,401.08,459.91,402.3,460.23Zm-10-3.43c.66-1,1.07-1.87.59-2.67a1,1,0,0,0-1.5-.35,1.32,1.32,0,0,0-.44,1.85A3.68,3.68,0,0,0,392.28,456.8Zm4.24,4.17c-.82-.25-1.58-.48-2-.65-.62-.22-1.29-.49-2-.78a2.35,2.35,0,0,0,.06,2.24,1.92,1.92,0,0,0,2.71.7A3,3,0,0,0,396.52,461Z"/><circle class="cls-13" cx="171.54" cy="247.01" r="35.7"/><circle class="cls-13" cx="421.99" cy="247.01" r="35.7"/><circle class="cls-13" cx="171.54" cy="349.56" r="35.7"/><circle class="cls-13" cx="421.99" cy="349.56" r="35.7"/><circle class="cls-13" cx="246.07" cy="173.28" r="35.7"/><circle class="cls-13" cx="349.21" cy="173.28" r="35.7"/><circle class="cls-13" cx="246.07" cy="421.99" r="35.7"/><circle class="cls-13" cx="349.21" cy="421.99" r="35.7"/><path class="cls-12" d="M194.33,232h-.57a11.32,11.32,0,0,0-22.62,0h-.57a3.86,3.86,0,0,0-3.86,3.86v4.47a3.86,3.86,0,0,0,3.86,3.86h1a.45.45,0,0,0,.46-.46V232.43a10.42,10.42,0,0,1,20.84,0V243.7a.47.47,0,0,0,0,.17,10.62,10.62,0,0,1-8.1,4.28.91.91,0,0,0-.87-.67h-3.52a.92.92,0,1,0,0,1.84h3.52a.9.9,0,0,0,.88-.71,11.12,11.12,0,0,0,8.46-4.46h1.06a3.86,3.86,0,0,0,3.86-3.86v-4.47A3.86,3.86,0,0,0,194.33,232Zm-23.22,11.27h-.54a2.94,2.94,0,0,1-2.94-2.94v-4.47a2.94,2.94,0,0,1,2.94-2.94h.54Zm26.16-2.94a2.94,2.94,0,0,1-2.94,2.94h-.54V232.89h.54a2.94,2.94,0,0,1,2.94,2.94Z"/><path class="cls-12" d="M174.25,243v-9.81a.92.92,0,1,0-1.84,0V243a.92.92,0,0,0,1.84,0Z"/><path class="cls-12" d="M192.49,243v-9.81a.92.92,0,1,0-1.84,0V243a.92.92,0,0,0,1.84,0Z"/><path class="cls-12" d="M159.33,248.61a1.47,1.47,0,1,0,0,2.93,1.47,1.47,0,0,0,0-2.93Zm0,2a.55.55,0,0,1-.55-.54.55.55,0,0,1,.55-.55.55.55,0,0,1,.54.55A.54.54,0,0,1,159.33,250.62Z"/><path class="cls-12" d="M162.84,250.21a.46.46,0,0,0-.09-.92l-.22,0a3.4,3.4,0,0,0-.81-1.49l.14-.17a.46.46,0,0,0-.07-.65.47.47,0,0,0-.64.07l-.15.18a3.12,3.12,0,0,0-1.21-.42v-.23a.46.46,0,0,0-.46-.46.45.45,0,0,0-.46.46v.23a3.25,3.25,0,0,0-1.56.66l-.16-.16a.45.45,0,0,0-.65,0,.46.46,0,0,0,0,.65l.16.15a3.24,3.24,0,0,0-.6,1.58h-.24a.46.46,0,0,0-.44.47.46.46,0,0,0,.46.45h.24a3.23,3.23,0,0,0,.71,1.53l-.15.17a.46.46,0,0,0,.34.77.46.46,0,0,0,.34-.15l.14-.16a3.26,3.26,0,0,0,1.6.55l0,.23a.45.45,0,0,0,.46.43h0a.47.47,0,0,0,.43-.49l0-.21a3.3,3.3,0,0,0,1.51-.77l.18.15a.46.46,0,0,0,.29.11.48.48,0,0,0,.35-.16.45.45,0,0,0,0-.65l-.17-.15a3.19,3.19,0,0,0,.51-1.61Zm-3.51,2.25a2.38,2.38,0,1,1,2.38-2.38A2.39,2.39,0,0,1,159.33,252.46Z"/><path class="cls-12" d="M154.27,256.55a2,2,0,0,0-2.53-1.29,2,2,0,0,0-1.28,2.52,2,2,0,0,0,1.9,1.39,1.91,1.91,0,0,0,.62-.1A2,2,0,0,0,154.27,256.55Zm-1.57,1.64a1.08,1.08,0,0,1-1.3-1.52,1.05,1.05,0,0,1,.63-.54,1.08,1.08,0,0,1,.67,2.06Z"/><path class="cls-12" d="M153.69,261.78l.21.52a.46.46,0,1,0,.85-.34l-.2-.52a4.78,4.78,0,0,0,2.06-2l.51.21a.38.38,0,0,0,.17,0,.46.46,0,0,0,.18-.89l-.51-.21a4.75,4.75,0,0,0,0-2.89l.51-.21a.46.46,0,0,0-.37-.85l-.5.22a4.82,4.82,0,0,0-2-2l-.06,0,.19-.52a.46.46,0,1,0-.86-.32l-.19.51a4.71,4.71,0,0,0-2.3,0l-.18-.54a.46.46,0,1,0-.87.29l.17.54a4.78,4.78,0,0,0-2.17,1.88l-.51-.25a.47.47,0,0,0-.62.21.48.48,0,0,0,.21.62l.52.25a4.77,4.77,0,0,0-.17,2.87l-.53.19a.46.46,0,0,0-.28.59.48.48,0,0,0,.44.3.4.4,0,0,0,.15,0l.54-.19a4.74,4.74,0,0,0,1.94,2.12l-.23.51a.47.47,0,0,0,.23.61.43.43,0,0,0,.19,0,.46.46,0,0,0,.42-.27l.23-.5a4.8,4.8,0,0,0,1.55.26A4.71,4.71,0,0,0,153.69,261.78Zm-3.1-1.15a3.82,3.82,0,0,1-1.93-2.26,3.9,3.9,0,1,1,7.17.56,3.89,3.89,0,0,1-5.24,1.7Z"/><path class="cls-12" d="M169.64,256.46a.46.46,0,0,0-.34-.25.49.49,0,0,0-.4.13l-.86.86a1.06,1.06,0,0,1-1.5-1.5l.86-.86a.5.5,0,0,0,.13-.4.46.46,0,0,0-.25-.34,5.35,5.35,0,0,0-7.74,5.46l-7,7a3.28,3.28,0,0,0,2.32,5.6,3.23,3.23,0,0,0,2.31-1l7-7a5.35,5.35,0,0,0,5.46-7.74ZM168,262a4.45,4.45,0,0,1-3.91,1.24.47.47,0,0,0-.41.12l-7.19,7.19a2.36,2.36,0,0,1-3.33-3.34l7.19-7.18a.47.47,0,0,0,.12-.41,4.43,4.43,0,0,1,5.79-5l-.38.38a2,2,0,1,0,2.8,2.8l.38-.38A4.44,4.44,0,0,1,168,262Z"/><path class="cls-12" d="M150.05,250.43h0a1.13,1.13,0,0,0,1-.54l4.43-7.24a1.14,1.14,0,0,0-.94-1.73l-3.56-.09A22.11,22.11,0,0,1,168.38,225a.46.46,0,0,0,.37-.53.47.47,0,0,0-.53-.38A23,23,0,0,0,150,240.81l-4-.1a1.13,1.13,0,0,0-1,.54,1.11,1.11,0,0,0,0,1.14l4.05,7.45A1.13,1.13,0,0,0,150.05,250.43ZM145.84,242a.24.24,0,0,1,0-.22.22.22,0,0,1,.19-.1h0l3.78.1.94,0,3.76.09a.23.23,0,0,1,.19.12.2.2,0,0,1,0,.21l-4.42,7.24a.25.25,0,0,1-.19.1.22.22,0,0,1-.19-.11l-4-7.45Z"/><path class="cls-12" d="M195.4,249.66a1.14,1.14,0,0,0-1.89-.57l-6.16,5.83A1.14,1.14,0,0,0,187,256a1.12,1.12,0,0,0,.78.82l3.41,1a22.09,22.09,0,0,1-20.93,10.7.47.47,0,0,0-.5.42.46.46,0,0,0,.42.5c.69.06,1.37.09,2.05.09a23,23,0,0,0,19.87-11.44l3.81,1.14a1.26,1.26,0,0,0,.33.05A1.15,1.15,0,0,0,197,259a1.13,1.13,0,0,0,.32-1.09Zm1,8.67a.21.21,0,0,1-.21.05l-3.61-1.08-.9-.27L188.07,256a.2.2,0,0,1-.15-.16.2.2,0,0,1,.06-.2l6.17-5.83a.24.24,0,0,1,.14-.06h.07a.24.24,0,0,1,.15.16l2,8.25A.21.21,0,0,1,196.4,258.33Z"/><path class="cls-5" d="M355.31,422H333.78a.46.46,0,0,0-.46.46.47.47,0,0,0,.46.46h21.53a.47.47,0,0,0,.46-.46A.46.46,0,0,0,355.31,422Z"/><path class="cls-5" d="M355.31,426.09H333.78a.46.46,0,0,0-.46.46.47.47,0,0,0,.46.46h21.53a.47.47,0,0,0,.46-.46A.46.46,0,0,0,355.31,426.09Z"/><path class="cls-5" d="M355.31,430.19H333.78a.46.46,0,0,0-.46.46.47.47,0,0,0,.46.46h21.53a.47.47,0,0,0,.46-.46A.46.46,0,0,0,355.31,430.19Z"/><path class="cls-5" d="M344,434.29H333.78a.46.46,0,0,0,0,.92H344a.46.46,0,1,0,0-.92Z"/><path class="cls-5" d="M354,440.45l-.06,1.66a.32.32,0,0,0,.32.34.34.34,0,0,0,.21-.08l1.23-1.08-.19-.07-1.34-.64A1,1,0,0,1,354,440.45Z"/><path class="cls-5" d="M367.25,420.43l-.95-.46.38-.81a1.18,1.18,0,0,0-.56-1.57l-.21-.1a1.16,1.16,0,0,0-.51-.12,1.2,1.2,0,0,0-1.07.67l-4.54,9.53a.57.57,0,0,0,.27.75l1.32.64a.7.7,0,0,0,.25.05.57.57,0,0,0,.51-.32l3.84-8.06.63.29L363.25,428a.36.36,0,0,0,.17.48l.09,0h.06a.36.36,0,0,0,.33-.21l3.52-7.37a.39.39,0,0,0,0-.28A.35.35,0,0,0,367.25,420.43Z"/><path class="cls-5" d="M353.09,441.08l-.42-.61c-.17-.26-.33-.27-.44-.24a.4.4,0,0,0-.22.24,4.19,4.19,0,0,0-.23.68,2.63,2.63,0,0,1-.29.8.4.4,0,0,1-.21.19h0c-.19,0-.35-.25-.42-.42a5.77,5.77,0,0,1-.42-2.28.12.12,0,0,0-.1-.12.13.13,0,0,0-.13.09,5.61,5.61,0,0,1-.52,1.3c-.07.13-.21.34-.36.3s-.17-.13-.22-.22a2.8,2.8,0,0,1-.33-.93.11.11,0,0,0-.1-.09.13.13,0,0,0-.12.07,2.69,2.69,0,0,1-.6,1,.74.74,0,0,1-.5.28.25.25,0,0,1-.12,0,36.27,36.27,0,0,0,.59-6.48,3.61,3.61,0,0,0-.17-1.35.41.41,0,0,0-.12-.18.25.25,0,0,0-.22,0,.56.56,0,0,0-.33.31A20,20,0,0,0,345,443.82a.13.13,0,0,0,.12.11h0a.11.11,0,0,0,.1-.13,19.67,19.67,0,0,1,2.06-10.36c.05-.09.12-.18.18-.19h0a.12.12,0,0,1,.05.08,3.46,3.46,0,0,1,.15,1.26,37,37,0,0,1-.57,6.35,1.25,1.25,0,0,1-.27-.54,3.39,3.39,0,0,1-.1-.52v-.72a.11.11,0,0,0-.12-.11h0a.1.1,0,0,0-.11.1,3.05,3.05,0,0,0,0,.74l0,3.51a.11.11,0,0,0,.1.11.12.12,0,0,0,.13-.08c.2-.68.37-1.39.52-2.13l.16,0a.94.94,0,0,0,.67-.35,2.81,2.81,0,0,0,.5-.72,3.19,3.19,0,0,0,.28.66.59.59,0,0,0,.38.32c.15,0,.38,0,.6-.4a5.35,5.35,0,0,0,.34-.73,6.3,6.3,0,0,0,.42,1.71c.13.31.4.64.75.55a.66.66,0,0,0,.33-.3,3,3,0,0,0,.33-.86,3.3,3.3,0,0,1,.21-.65.27.27,0,0,1,.08-.11c.06,0,.11.05.18.15l.59.87.49.73a.11.11,0,0,0,.16,0,.11.11,0,0,0,0-.16Zm-6.36,1.49v-1.75a1.19,1.19,0,0,0,.31.39C346.94,441.68,346.84,442.13,346.73,442.57Z"/><circle class="cls-5" cx="333.33" cy="405.6" r="1.03"/><path class="cls-5" d="M376,403.43l-6.12-.62a.46.46,0,0,0-.51.41l-.13,1.27-4-.79-3.14-4.64a.46.46,0,0,0-.3-.19l-8.16-1.58h0l-5-1a.49.49,0,0,0-.35.08l-4.64,3.14-4.46-.86.31-1a.47.47,0,0,0,0-.35.44.44,0,0,0-.28-.22l-5.89-1.76a.48.48,0,0,0-.58.31.46.46,0,0,0,.31.57h0l5.46,1.63-3.25,10.9-5.46-1.62h0a.46.46,0,0,0-.57.31.46.46,0,0,0,.31.57l1,.3a1.45,1.45,0,0,0-.27.84V445a1.49,1.49,0,0,0,1.49,1.49h25.63a1.49,1.49,0,0,0,1.49-1.49V435l2.41-5.07-.27-.09-1.33-.64a1.31,1.31,0,0,1-.24-.17l-.57,1.21v-12.6a1.35,1.35,0,0,0,.29,0,2.57,2.57,0,0,0,1.47-.45,2.6,2.6,0,0,0,1.11-1.68,2.81,2.81,0,0,0,0-.49l.47.14a2.92,2.92,0,0,0,.51,0,2.6,2.6,0,0,0,1.47-.45,2.22,2.22,0,0,0,.48-.44l3.53.36-.08.8a.46.46,0,0,0,.41.51l6.12.62h.05a.46.46,0,0,0,0-.92h0l-5.66-.57,1.15-11.33,5.66.58h0a.48.48,0,0,0,.51-.41A.47.47,0,0,0,376,403.43Zm-18.09,28.69-3.47,7.25a.3.3,0,0,0,.14.38l1.34.64a.27.27,0,0,0,.12,0,.27.27,0,0,0,.25-.16l1.62-3.38V445a.58.58,0,0,1-.57.57H331.73a.58.58,0,0,1-.57-.57V409.12a.56.56,0,0,1,.4-.53l3.85,1.15.13,0a.4.4,0,0,0,.22-.06.51.51,0,0,0,.23-.27l.26-.88h.56l2.75.53a2.22,2.22,0,0,0,1.72,1.91,2.6,2.6,0,0,0-.43,1,2.42,2.42,0,0,0,0,.76h-7.05a.46.46,0,0,0,0,.92h7.32a2.36,2.36,0,0,0,1.84,1.4,2.94,2.94,0,0,0,.51.05,2.65,2.65,0,0,0,1-.22,2.6,2.6,0,0,0,2.1,3l.18,0h-13a.46.46,0,0,0-.46.46.47.47,0,0,0,.46.46h16l.16.23a2.2,2.2,0,0,0,1.45.95,2.09,2.09,0,0,0,.43,0,2.22,2.22,0,0,0,2-1.22h.54a2.26,2.26,0,0,0,.83.35,2.28,2.28,0,0,0,1.7-.35,2.26,2.26,0,0,0,1-1.51l.06,0Zm-6.17-18.54a1.68,1.68,0,0,1-.72,1.09l-3,2a1.73,1.73,0,0,1-1.29.27,1.77,1.77,0,0,1-1.1-.72,1.73,1.73,0,0,1,.46-2.39l3-2a1.73,1.73,0,0,1,2.39.46A1.77,1.77,0,0,1,351.76,413.58Zm1.18,3.43a1.32,1.32,0,0,1,.2,1,1.35,1.35,0,0,1-2.44.5l-1.17-1.72,2-1.37a1.73,1.73,0,0,0,.21-.17Zm-3.78.88h-1.68a2.61,2.61,0,0,0,1.07-.42l.22-.15Zm.16-7.92a1.68,1.68,0,0,1-.72,1.1l-4.2,2.85a1.76,1.76,0,0,1-1.29.26,1.72,1.72,0,0,1-1.36-2,1.69,1.69,0,0,1,.73-1.09l4.2-2.85a1.71,1.71,0,0,1,2.64,1.74Zm-5-1.74a1.32,1.32,0,0,1-.57.86l-.84.57-.36.25a1.35,1.35,0,0,1-1.88-.37,1.36,1.36,0,0,1,.36-1.87l1.2-.82a1.43,1.43,0,0,1,.76-.23,1.35,1.35,0,0,1,1.12.6A1.33,1.33,0,0,1,344.33,408.23Zm20.09,4.65a1.7,1.7,0,0,1-.72,1.1,1.72,1.72,0,0,1-2.38-.46l-3.94-5.82h0l-.67-1a.46.46,0,0,0-.76.52l4.61,6.81a1.74,1.74,0,0,1,.26,1.28,1.77,1.77,0,0,1-.72,1.1,1.72,1.72,0,0,1-2.38-.46l-.21-.3h0l-3.65-5.4h0l-.74-1.1a.46.46,0,1,0-.77.51l.93,1.37h0l3.48,5.14a1.35,1.35,0,0,1-2.24,1.52l-.81-1.19h0l-1.33-2a2.62,2.62,0,0,0-2.29-3.91,2.54,2.54,0,0,0,.14-.47,2.63,2.63,0,0,0-4.06-2.68l-.9.61a2.19,2.19,0,0,0-.38-1.38,2.27,2.27,0,0,0-3.15-.61l-1.2.82a2.23,2.23,0,0,0-.9,1.25l-3.09-.59,2.39-8,4.73.91a.48.48,0,0,0,.35-.07l4.64-3.15,3.76.73-3.88,2.63a.45.45,0,0,0-.19.5,4.21,4.21,0,0,0,3,2.92,4.1,4.1,0,0,0,3.67-1.38l3.58.69,5.58,8.25A1.7,1.7,0,0,1,364.42,412.88Zm3.9.87-3.11-.32a1.58,1.58,0,0,0,.11-.37,2.61,2.61,0,0,0-.4-2L361,405.26h0l-1.75-2.58a.5.5,0,0,0-.29-.2l-3.89-.74a.7.7,0,0,0-.66.22,3.22,3.22,0,0,1-2.89,1.18,3.17,3.17,0,0,1-2.16-2l4.35-2.95,7.78,1.51,3.14,4.64a.44.44,0,0,0,.29.19l4.27.84Z"/><path class="cls-5" d="M372.29,412.78a1,1,0,1,0,1-1A1,1,0,0,0,372.29,412.78Z"/><path class="cls-6" d="M266,442.17h-4.52v-21.8a.47.47,0,0,0-.46-.46H258.5l-.9-14.8a.45.45,0,0,0-.45-.43h-4.72a.47.47,0,0,0-.46.43l-.89,14.8h-1.24l-.89-14.8a.46.46,0,0,0-.46-.43h-4.71a.45.45,0,0,0-.46.43l-.9,14.8h-3.16v-6.17a.46.46,0,0,0-.79-.32l-6,6v-5.67a.46.46,0,0,0-.29-.42.43.43,0,0,0-.5.1l-6.82,6.81a.51.51,0,0,0-.13.33v21.61h-3.22a.47.47,0,0,0-.46.46.46.46,0,0,0,.46.46H266a.46.46,0,0,0,.46-.46A.47.47,0,0,0,266,442.17ZM252.86,405.6h3.85l.87,14.31H252Zm-8.65,0h3.85l.86,14.31h-5.57ZM233,442.17H229.9V430.22H233Zm11.63,0h-3.13V430.22h3.13Zm11.62,0h-3.12V430.22h3.12Zm4.25,0H257.2V429.76a.46.46,0,0,0-.46-.46h-4a.46.46,0,0,0-.46.46v12.41h-6.66V429.76a.47.47,0,0,0-.46-.46h-4.05a.47.47,0,0,0-.46.46v12.41H234V429.76a.47.47,0,0,0-.46-.46h-4.05a.47.47,0,0,0-.46.46v12.41h-3.32V420.75l5.9-5.9v5.67a.46.46,0,0,0,.78.33l6-6v5.52a.47.47,0,0,0,.46.46h21.73Z"/><path class="cls-6" d="M246.13,403.34a2.43,2.43,0,0,0,2.3-1.62,2.81,2.81,0,0,0,2.12-1.38,3.16,3.16,0,1,0-3-4.18,2.82,2.82,0,0,0-2.21,2.43,2.44,2.44,0,0,0,.81,4.75Zm-.29-3.94a.45.45,0,0,0,.37-.49,1.9,1.9,0,0,1,1.72-1.88.47.47,0,0,0,.41-.35,2.22,2.22,0,0,1,2.17-1.73,2.23,2.23,0,1,1-.08,4.46h-.11a.45.45,0,0,0-.46.28,1.89,1.89,0,0,1-1.74,1.13h0a.45.45,0,0,0-.48.38,1.52,1.52,0,1,1-1.79-1.79Z"/><path class="cls-6" d="M253.08,402.18a2,2,0,0,0,3.87.73,2.28,2.28,0,0,0,1.63-1.06,2.56,2.56,0,1,0-2.49-3.44,2.26,2.26,0,0,0-1.73,1.9A2,2,0,0,0,253.08,402.18Zm1.8-1.06a.5.5,0,0,0,.37-.49,1.38,1.38,0,0,1,1.25-1.36.47.47,0,0,0,.4-.35,1.63,1.63,0,0,1,1.59-1.27,1.64,1.64,0,0,1,0,3.28l-.13,0a.46.46,0,0,0-.47.28,1.37,1.37,0,0,1-1.28.82.43.43,0,0,0-.46.38,1.08,1.08,0,0,1-2.15-.21A1.07,1.07,0,0,1,254.88,401.12Z"/><path class="cls-11" d="M249.2,176.46v-.93a3.78,3.78,0,0,0,1.65-2.56,2,2,0,0,0,.93-1.88,2.32,2.32,0,0,0-.43-1.56v-1c0-.09,0-.2,0-.33a6.32,6.32,0,0,0-.26-2.49l.27-.53c.4-.8.59-1.17.28-1.67a1,1,0,0,0-1.3-.37,1.72,1.72,0,0,1-.79.25,2.73,2.73,0,0,1-.67-.11,15.72,15.72,0,0,0-3.37-.35,4.31,4.31,0,0,0-4.75,5.27c0,.13,0,.24,0,.33v1a1.25,1.25,0,0,0-.26.42,2.89,2.89,0,0,0-.17,1.13,2.2,2.2,0,0,0,.94,2,4.4,4.4,0,0,0,1.64,2.39v1a7.81,7.81,0,0,0-6,6.28,1,1,0,0,0,1,1.15h16.33a1,1,0,0,0,1-1.15A7.81,7.81,0,0,0,249.2,176.46Zm-3.13,6.45H237.9s.86-5.16,6-5.59V175a3.44,3.44,0,0,1-1.72-2.58s-.86,0-.86-1.28c0-.78.15-.93.28-.93a.25.25,0,0,1,.15.07v-1.72c0-.86-.43-3,1.72-4.3a4.63,4.63,0,0,1,2-.31,15.36,15.36,0,0,1,3.12.31,3.43,3.43,0,0,0,.92.15,2.76,2.76,0,0,0,1.23-.35h0c.1,0-.82,1.58-.75,1.72a5.91,5.91,0,0,1,.31,2.79v1.72a.25.25,0,0,1,.15-.07c.13,0,.28.15.28.93,0,1-.49,1.09-.73,1.09h-.13a2.9,2.9,0,0,1-1.72,2.78v2.37c5.16.43,6,5.59,6,5.59Z"/><path class="cls-11" d="M243.23,156.16h2.34v2a.5.5,0,1,0,1,0v-2h2.56a.91.91,0,0,0,.8-.47.89.89,0,0,0,0-.92l-2.94-5.1a.92.92,0,0,0-.8-.46h0a.92.92,0,0,0-.8.46l-2.94,5.1a.93.93,0,0,0,.8,1.39Zm3-6,2.95,5.1h-5.91Z"/><path class="cls-11" d="M234.93,157.78l-5.69-1.52a.89.89,0,0,0-.89.24.91.91,0,0,0-.24.9l1.52,5.68a.92.92,0,0,0,.66.66l.24,0a.89.89,0,0,0,.65-.27l1.66-1.66,1.43,1.44a.5.5,0,0,0,.35.15.47.47,0,0,0,.35-.15.48.48,0,0,0,0-.7l-1.43-1.43,1.81-1.81a.93.93,0,0,0,.23-.9A.91.91,0,0,0,234.93,157.78Zm-2.05,2.71-.7.7-1.66,1.65L229,157.15l5.68,1.52v0Z"/><path class="cls-11" d="M229.89,174.87a.5.5,0,0,0,0-1h-2v-2.56a.93.93,0,0,0-1.39-.8l-5.1,2.94a.93.93,0,0,0,0,1.61l5.1,2.94a.84.84,0,0,0,.46.13.9.9,0,0,0,.47-.13.92.92,0,0,0,.46-.8v-2.34Zm-3-1v3.33l-5.1-3,5.11-2.94Z"/><path class="cls-11" d="M233.54,187.6l1.43-1.44a.48.48,0,0,0,0-.7.5.5,0,0,0-.7,0l-1.43,1.44L231,185.1a.94.94,0,0,0-.9-.25,1,1,0,0,0-.66.66L228,191.19a.94.94,0,0,0,.89,1.18,1,1,0,0,0,.25,0l5.68-1.52a.93.93,0,0,0,.42-1.56Zm-4.7,3.83,1.54-5.68,1.8,1.81.7.7,1.65,1.66Z"/><path class="cls-11" d="M248.9,192.59h-2.34v-2a.5.5,0,0,0-1,0v2H243a.93.93,0,0,0-.8,1.39l2.94,5.1a.93.93,0,0,0,1.61,0l2.94-5.1a.93.93,0,0,0-.8-1.39Zm-3,6-2.94-5.1h5.9Z"/><path class="cls-11" d="M262.5,185.67a.9.9,0,0,0-.66-.66.89.89,0,0,0-.89.24l-1.66,1.65-1.43-1.44a.5.5,0,0,0-.7,0,.48.48,0,0,0,0,.7l1.43,1.44-1.81,1.81a.94.94,0,0,0,.42,1.56l5.69,1.52.24,0a.93.93,0,0,0,.65-.27.92.92,0,0,0,.24-.9Zm-5.06,4.41v0l1.81-1.8.7-.7,1.66-1.66,1.51,5.7Z"/><path class="cls-11" d="M270.77,173.68l-5.1-3a.94.94,0,0,0-.93,0,.9.9,0,0,0-.46.8v2.34h-2a.5.5,0,0,0,0,1h2v2.55a.92.92,0,0,0,.46.81,1,1,0,0,0,.47.13.94.94,0,0,0,.46-.13l5.1-2.94a.93.93,0,0,0,0-1.61Zm-5.56,3.75h0v-5.89l5.1,3Z"/><path class="cls-11" d="M258.59,161.15l-1.43,1.43a.48.48,0,0,0,0,.7.47.47,0,0,0,.35.15.5.5,0,0,0,.35-.15l1.43-1.44,1.81,1.81a.92.92,0,0,0,.65.28,1.09,1.09,0,0,0,.25,0,.92.92,0,0,0,.66-.65l1.52-5.69a.92.92,0,0,0-.24-.9,1,1,0,0,0-.9-.24l-5.68,1.53a.92.92,0,0,0-.42,1.55Zm4.7-3.84L261.77,163h0l-1.8-1.81-.7-.7-1.65-1.66Z"/><path class="cls-7" d="M427.7,355l2.07-.9,3.45,4.13a.46.46,0,0,0,.36.17.39.39,0,0,0,.18,0l5.6-2.44a.44.44,0,0,0,.27-.43l-.18-5.92a.46.46,0,0,0-.46-.45h0a.46.46,0,0,0-.45.48l.05,1.59-3.82,1.66a.46.46,0,0,0,.18.88.41.41,0,0,0,.19,0l3.48-1.51.09,3-5,2.18-3.46-4.13a.45.45,0,0,0-.53-.13l-2.39,1a.47.47,0,0,0-.24.61A.46.46,0,0,0,427.7,355Z"/><path class="cls-7" d="M436.1,358.75a1.54,1.54,0,0,0-2,2.05,1.55,1.55,0,0,0,1.41.92,1.5,1.5,0,0,0,.62-.13,1.54,1.54,0,0,0,.79-2A1.49,1.49,0,0,0,436.1,358.75Zm-.31,2a.61.61,0,0,1-.48,0,.64.64,0,0,1-.34-.33.64.64,0,0,1,.32-.82.74.74,0,0,1,.25-.05.64.64,0,0,1,.23.05.61.61,0,0,1,.34.33A.62.62,0,0,1,435.79,360.75Z"/><path class="cls-7" d="M438.84,357.07a1.53,1.53,0,0,0-.8,2,1.56,1.56,0,0,0,1.41.93,1.68,1.68,0,0,0,.62-.13,1.55,1.55,0,0,0,.82-.85,1.55,1.55,0,0,0-.87-2A1.47,1.47,0,0,0,438.84,357.07Zm.84.83a.64.64,0,0,1,.34.33.59.59,0,0,1,0,.47.58.58,0,0,1-.33.34.59.59,0,0,1-.47,0,.56.56,0,0,1-.34-.33.59.59,0,0,1,0-.47.64.64,0,0,1,.33-.34.69.69,0,0,1,.24-.05A.59.59,0,0,1,439.68,357.9Z"/><path class="cls-7" d="M409.45,355.24,408.18,357l-1.27-1.72a.44.44,0,0,0-.37-.19h-4.33a.46.46,0,1,0,0,.92h4.1l1.3,1.77-1.3,1.76h-4.1a.47.47,0,0,0-.46.46.46.46,0,0,0,.46.46h4.33a.46.46,0,0,0,.37-.18l1.27-1.73,1.27,1.73a.49.49,0,0,0,.37.18h2.73v.67a.63.63,0,0,0,.32.55.72.72,0,0,0,.32.08.62.62,0,0,0,.32-.09l1.93-1.14a.65.65,0,0,0,0-1.11l-1.95-1.09a.64.64,0,0,0-.64,0,.65.65,0,0,0-.32.56v.65h-2.48l-1.31-1.76,1.31-1.77h2.49v.66a.63.63,0,0,0,1,.55l1.93-1.14a.66.66,0,0,0,.31-.56.62.62,0,0,0-.32-.55l-1.95-1.1a.65.65,0,0,0-1,.57v.65h-2.72A.47.47,0,0,0,409.45,355.24Zm5.11,4.71-1.09.64v-1.26Zm0-4.46-1.09.65v-1.27Z"/><path class="cls-7" d="M444.07,368.85H399.45a2.3,2.3,0,0,0-2.3,2.3v.92h49.22v-.92A2.3,2.3,0,0,0,444.07,368.85Zm-46,2.3a1.38,1.38,0,0,1,1.38-1.38h44.62a1.38,1.38,0,0,1,1.38,1.38Z"/><path class="cls-7" d="M445,336.65h-9.2V326.53s0,0,0-.06,0,0,0-.06a.43.43,0,0,0-.11-.21L430,320.56a.43.43,0,0,0-.21-.11l-.05,0H413.4a1.36,1.36,0,0,0-1.35,1.35v14.88H398.53a1.38,1.38,0,0,0-1.38,1.38v28.06a1.38,1.38,0,0,0,1.38,1.38H445a1.38,1.38,0,0,0,1.38-1.38V338A1.38,1.38,0,0,0,445,336.65ZM430.15,322l2,2,2,2h-3.64a.43.43,0,0,1-.43-.43ZM413,339.8v-18a.44.44,0,0,1,.43-.43h15.83v4.3a1.35,1.35,0,0,0,1.35,1.35h4.29v23a.43.43,0,0,1-.43.43h-21A.43.43,0,0,1,413,350Zm.43,11.57h21a1.35,1.35,0,0,0,1.35-1.35V339.8h7a.4.4,0,0,1,.39.4v22.57a.4.4,0,0,1-.39.4H400.7a.4.4,0,0,1-.4-.4V340.2a.4.4,0,0,1,.4-.4h11.35V350A1.36,1.36,0,0,0,413.4,351.37Zm32.05,14.72a.46.46,0,0,1-.46.46H398.53a.47.47,0,0,1-.46-.46V338a.47.47,0,0,1,.46-.46h13.52V339H400.7a1.18,1.18,0,0,0-1.18,1.18v22.57A1.18,1.18,0,0,0,400.7,364h42.13a1.18,1.18,0,0,0,1.18-1.18V340.2a1.18,1.18,0,0,0-1.18-1.18h-7v-1.45H445a.46.46,0,0,1,.46.46Z"/><path class="cls-7" d="M415.08,326.23a1.13,1.13,0,0,1-.84-.38l-.19.25a1.31,1.31,0,0,0,1,.43c.72,0,1-.4,1-.79,0-.56-.49-.69-.93-.81s-.65-.17-.65-.44.23-.42.55-.42a1,1,0,0,1,.77.32l.2-.24a1.23,1.23,0,0,0-.94-.38c-.53,0-.92.3-.92.74s.48.65.9.76.68.18.68.5S415.56,326.23,415.08,326.23Z"/><path class="cls-7" d="M416.84,325.89h1.35l.23.59h.37l-1.07-2.67h-.42l-1.07,2.67h.37Zm.67-1.78.58,1.48h-1.16Z"/><polygon class="cls-7" points="420.71 326.19 419.47 326.19 419.47 323.81 419.14 323.81 419.14 326.48 420.71 326.48 420.71 326.19"/><polygon class="cls-7" points="422.92 326.19 421.51 326.19 421.51 325.26 422.9 325.26 422.9 324.97 421.51 324.97 421.51 324.11 422.92 324.11 422.92 323.81 421.18 323.81 421.18 326.48 422.92 326.48 422.92 326.19"/><path class="cls-7" d="M424.33,326.23a1.1,1.1,0,0,1-.84-.38l-.2.25a1.32,1.32,0,0,0,1,.43c.72,0,1-.4,1-.79,0-.56-.5-.69-.93-.81s-.65-.17-.65-.44.23-.42.55-.42a1,1,0,0,1,.77.32l.2-.24a1.24,1.24,0,0,0-.95-.38c-.52,0-.91.3-.91.74s.47.65.9.76.68.18.68.5S424.8,326.23,424.33,326.23Z"/><path class="cls-7" d="M429.48,336.65a2,2,0,0,0,1.21.92l.53.16,0,1.29v.92a2.07,2.07,0,0,1-.57-.14,2.57,2.57,0,0,1-1.05-.73l-.46.57a1.29,1.29,0,0,0,.17.16,2.93,2.93,0,0,0,1.89.82v.81h.56v-.82a2,2,0,0,0,1.68-.82,1.61,1.61,0,0,0,.26-.78.62.62,0,0,0,0-.13,1.46,1.46,0,0,0-.69-1.32,4.69,4.69,0,0,0-1.21-.51v-.41l0-1.56a2.19,2.19,0,0,1,1.32.71l.46-.55a2.64,2.64,0,0,0-1.77-.85v-.85h-.55l0,.83a1.8,1.8,0,0,0-1.91,1.65A1.36,1.36,0,0,0,429.48,336.65Zm2.26,3.15V339l0-1.13c.63.2,1.15.43,1.14,1.05,0,0,0,.05,0,.08a.94.94,0,0,1-.58.78,1.38,1.38,0,0,1-.58.14Zm-.48-4.75,0,1.6v.26a3.74,3.74,0,0,1-.63-.26.72.72,0,0,1-.46-.66C430.15,335.45,430.61,335.08,431.26,335.05Z"/><path class="cls-7" d="M430.26,343.37h-2.17V333.3a.46.46,0,0,0-.46-.46.47.47,0,0,0-.46.46v10.07H425v-7.72a.46.46,0,0,0-.92,0v7.72h-2.18v-9.19a.47.47,0,0,0-.46-.46.46.46,0,0,0-.46.46v9.19h-2.19v-6.11a.46.46,0,0,0-.46-.46.47.47,0,0,0-.46.46v6.11h-2.39V328.69a.47.47,0,0,0-.46-.46.46.46,0,0,0-.46.46v15.14a.45.45,0,0,0,.46.46h15.25a.45.45,0,0,0,.46-.46A.46.46,0,0,0,430.26,343.37Z"/><path class="cls-7" d="M427.68,330.54,425,333.22l-2.64-2.64a.46.46,0,0,0-.65,0L417,335.32a.46.46,0,0,0,0,.65.47.47,0,0,0,.33.14.47.47,0,0,0,.32-.14l4.42-4.42,2.64,2.64a.47.47,0,0,0,.33.14.43.43,0,0,0,.32-.14l3-3,.45.45a.17.17,0,0,0,.29-.08l.54-2.1a.17.17,0,0,0-.21-.21l-2.09.58a.18.18,0,0,0-.08.29Z"/><path class="cls-10" d="M151.37,355.54h7.5a2.44,2.44,0,0,0,4.84,0h5.5a.35.35,0,0,0,.34-.35v-7.05a.31.31,0,0,0-.1-.24l-3.52-3.53a.35.35,0,0,0-.24-.1h-5.15v-2.79a.34.34,0,0,0-.34-.34H144.48a.34.34,0,0,0-.34.34v13.71a.35.35,0,0,0,.34.35h2a2.45,2.45,0,0,0,4.85,0Zm11.65,0a1.76,1.76,0,0,1-3.46,0,2,2,0,0,1,0-.35,1.86,1.86,0,0,1,0-.34,1.76,1.76,0,0,1,3.46,0,1.27,1.27,0,0,1,0,.34A1.34,1.34,0,0,1,163,355.54ZM144.83,345v-3.13h15v9h-15Zm0,9.89v-3.34H160.2a.35.35,0,0,0,.34-.35V345h5l3.31,3.32v6.57h-5.15a2.44,2.44,0,0,0-4.84,0h-7.5a2.45,2.45,0,0,0-4.85,0ZM149,357a1.77,1.77,0,0,1-1.74-1.42,2,2,0,0,1,0-.35,1.87,1.87,0,0,1,0-.34,1.77,1.77,0,0,1,3.47,0,1.86,1.86,0,0,1,0,.34,2,2,0,0,1,0,.35A1.77,1.77,0,0,1,149,357Z"/><path class="cls-10" d="M162.29,351.51h5a.35.35,0,0,0,.35-.35v-2.3a.35.35,0,0,0-.1-.24L165,346.08a.31.31,0,0,0-.24-.1h-2.44a.34.34,0,0,0-.34.34v4.84A.35.35,0,0,0,162.29,351.51Zm.35-4.84h2l2.32,2.33v1.82h-4.27Z"/><path class="cls-10" d="M195.89,346.65H195V336.7a.35.35,0,0,0-.35-.35h-1l-.4-6.72a.34.34,0,0,0-.35-.32h-2.18a.34.34,0,0,0-.34.32l-.41,6.72h-.32l-.4-6.72a.36.36,0,0,0-.35-.32h-2.18a.34.34,0,0,0-.34.32l-.41,6.72h-5.21v-2.72a.35.35,0,0,0-.21-.32.36.36,0,0,0-.38.08l-2.55,2.54v-2.3a.35.35,0,0,0-.21-.32.34.34,0,0,0-.37.08l-3.16,3.15a.35.35,0,0,0-.1.24v9.87h-2.42a.34.34,0,0,0-.34.34.35.35,0,0,0,.34.35h24.56a.35.35,0,0,0,.35-.35A.35.35,0,0,0,195.89,346.65ZM191,330h1.53l.38,6.35h-2.3Zm-4,0h1.53l.38,6.35h-2.3Zm-9.43,16.65H176.4v-5.26h1.19Zm7.57,0H184v-5.26h1.18Zm7.57,0h-1.18v-5.26h1.18Zm1.58,0h-.89V341a.34.34,0,0,0-.34-.34h-1.87a.35.35,0,0,0-.35.34v5.61h-5V341a.35.35,0,0,0-.35-.34h-1.87a.34.34,0,0,0-.34.34v5.61h-5V341a.35.35,0,0,0-.35-.34h-1.87a.35.35,0,0,0-.35.34v5.61h-1.27v-9.72l2.46-2.47v2.31a.36.36,0,0,0,.22.32.34.34,0,0,0,.37-.08l2.55-2.55v2.24a.35.35,0,0,0,.35.34h13.92Z"/><path class="cls-10" d="M187.78,328.53a1.27,1.27,0,0,0,1.16-.77,1.4,1.4,0,0,0,1-.63,1.58,1.58,0,0,0,1.49-1.58,1.6,1.6,0,0,0-1.59-1.6,1.58,1.58,0,0,0-1.47,1,1.44,1.44,0,0,0-1.05,1.14,1.27,1.27,0,0,0,.5,2.43Zm-.11-1.83a.37.37,0,0,0,.28-.36.75.75,0,0,1,.68-.74.35.35,0,0,0,.3-.26.89.89,0,0,1,.87-.7.9.9,0,1,1-.05,1.8h0a.35.35,0,0,0-.35.2.75.75,0,0,1-.69.45h0a.35.35,0,0,0-.34.28.57.57,0,0,1-1.13-.11A.57.57,0,0,1,187.67,326.7Z"/><path class="cls-10" d="M193.09,328.53a1.09,1.09,0,0,0,1-.61,1.17,1.17,0,0,0,.73-.48,1.32,1.32,0,0,0-.12-2.63,1.3,1.3,0,0,0-1.2.8,1.18,1.18,0,0,0-.82.9,1,1,0,0,0-.61,1A1.07,1.07,0,0,0,193.09,328.53ZM193,327.1a.36.36,0,0,0,.28-.35.51.51,0,0,1,.46-.5.35.35,0,0,0,.3-.26.61.61,0,0,1,.6-.49.63.63,0,0,1,.63.63.64.64,0,0,1-.67.62.35.35,0,0,0-.35.2.49.49,0,0,1-.47.3h0a.35.35,0,0,0-.34.29.37.37,0,0,1-.36.3.38.38,0,0,1-.37-.37A.38.38,0,0,1,193,327.1Z"/><path class="cls-10" d="M149.3,340a1.14,1.14,0,0,0,.68.23,1,1,0,0,0,.45-.1l7.79-3.35a1.13,1.13,0,0,0,.23-1.95l-2.86-2.13a22.13,22.13,0,0,1,23.34-2.87.46.46,0,0,0,.39-.83,23,23,0,0,0-24.49,3.13l-3.18-2.37a1.12,1.12,0,0,0-1.13-.14,1.15,1.15,0,0,0-.68.92l-1,8.42A1.11,1.11,0,0,0,149.3,340Zm1.45-9.36a.22.22,0,0,1,.13-.17.21.21,0,0,1,.22,0l3,2.25.75.56,3,2.25a.2.2,0,0,1,.08.2.2.2,0,0,1-.13.18l-7.78,3.35a.22.22,0,0,1-.22,0,.2.2,0,0,1-.09-.19Z"/><path class="cls-10" d="M170.73,371.1l-6.8-5.07a1.11,1.11,0,0,0-1.12-.14,1.16,1.16,0,0,0-.69.91l-.41,3.55A22.12,22.12,0,0,1,150,359.88a.47.47,0,0,0-.62-.2.46.46,0,0,0-.2.62,23,23,0,0,0,12.47,11l-.46,3.94a1.15,1.15,0,0,0,1.12,1.27,1,1,0,0,0,.45-.1l7.79-3.35a1.13,1.13,0,0,0,.23-1.95Zm-.59,1.11-7.79,3.35a.19.19,0,0,1-.21,0,.2.2,0,0,1-.09-.19l.44-3.74.11-.93.44-3.76a.19.19,0,0,1,.13-.17l.09,0a.19.19,0,0,1,.12,0l6.8,5.07a.22.22,0,0,1,0,.38Z"/><path class="cls-10" d="M192.65,348.92a1.14,1.14,0,0,0-2-.23l-5.07,6.8a1.15,1.15,0,0,0-.13,1.13,1.12,1.12,0,0,0,.91.68l3.55.42a22,22,0,0,1-3.6,6.19.46.46,0,0,0,.06.65.45.45,0,0,0,.65-.06,23,23,0,0,0,3.83-6.67l3.94.46H195a1.14,1.14,0,0,0,.91-.46,1.12,1.12,0,0,0,.13-1.13Zm2.48,8.37a.2.2,0,0,1-.2.09l-3.73-.44-.93-.11-3.76-.44a.2.2,0,0,1-.17-.13.2.2,0,0,1,0-.22l5.07-6.8a.21.21,0,0,1,.17-.09h0a.18.18,0,0,1,.17.13l3.36,7.78A.22.22,0,0,1,195.13,357.29Z"/><path class="cls-10" d="M191,369.86a2.77,2.77,0,1,0-3.43,0l-.22.1a5.05,5.05,0,0,0-2.76-2.4,2.76,2.76,0,1,0-3.43,0,5.09,5.09,0,0,0-2.76,2.4l-.22-.1a2.73,2.73,0,0,0,1.05-2.15,2.76,2.76,0,0,0-5.52,0,2.73,2.73,0,0,0,1.05,2.15,5.06,5.06,0,0,0-3.17,3.49.45.45,0,0,0,.08.4.46.46,0,0,0,.36.17H193.7a.45.45,0,0,0,.36-.17.48.48,0,0,0,.09-.4A5.08,5.08,0,0,0,191,369.86Zm-16.37-2.15a1.84,1.84,0,1,1,1.84,1.84A1.85,1.85,0,0,1,174.61,367.71Zm3.25,5.29h-5.21a4.08,4.08,0,0,1,5.38-2.2,5.07,5.07,0,0,0-.23,1.51A4,4,0,0,0,177.86,373Zm3.16-7.59a1.84,1.84,0,1,1,1.84,1.84A1.84,1.84,0,0,1,181,365.41Zm5.91,7.59h-8.14a3.37,3.37,0,0,1-.07-.69,4,4,0,0,1,.15-1,3.66,3.66,0,0,1,.34-.87,4.13,4.13,0,0,1,7.64.87,4,4,0,0,1,.15,1A4.25,4.25,0,0,1,186.93,373Zm.49-5.29a1.84,1.84,0,1,1,1.84,1.84A1.85,1.85,0,0,1,187.42,367.71Zm.44,5.29a5.36,5.36,0,0,0,.06-.69,5.07,5.07,0,0,0-.23-1.51,4,4,0,0,1,1.57-.33,4.13,4.13,0,0,1,3.8,2.53Z"/><path class="cls-9" d="M438.34,257.84a1,1,0,0,0,.21-.75,8.78,8.78,0,0,0-6.94-7.11v-1.44a4.84,4.84,0,0,0,1.92-2.78,2.35,2.35,0,0,0,1.06-2.17,2.29,2.29,0,0,0-.5-1.71v-1.27c0-.11,0-.24,0-.39a5.3,5.3,0,0,0-2.45-5.36,5.79,5.79,0,0,0-2.82-.49,18.11,18.11,0,0,0-3.84.39,3,3,0,0,0-1.59,1.18c-.42,0-.86-.05-1.29-.05a5.46,5.46,0,0,0-1.25-1,5.83,5.83,0,0,0-2.83-.49,17.93,17.93,0,0,0-3.83.39A3.6,3.6,0,0,0,412,237a6.54,6.54,0,0,0-.47,3.23c0,.15,0,.28,0,.39v1.27a2.29,2.29,0,0,0-.5,1.71,2,2,0,0,0,1,2,4.22,4.22,0,0,0,1.93,3V250a8.78,8.78,0,0,0-6.94,7.11.92.92,0,0,0,.91,1.07h4.24a7.54,7.54,0,0,0-.18.77A.92.92,0,0,0,413,260H432.1a.92.92,0,0,0,.91-1.07,7.54,7.54,0,0,0-.18-.77h4.81A.94.94,0,0,0,438.34,257.84Zm-25.8-.6H408s1-6,6.95-6.45v-2.74a3.34,3.34,0,0,1-2-3.21h-.15c-.27,0-.84-.13-.84-1.26,0-.89.18-1.07.32-1.07a.29.29,0,0,1,.18.08v-2a6.85,6.85,0,0,1,.35-3.21c.08-.17.64-1.49,1.63-1.75a17.24,17.24,0,0,1,3.6-.36,5.41,5.41,0,0,1,2.35.36,4.38,4.38,0,0,1,.42.28,4.28,4.28,0,0,0-1.78.45,5.36,5.36,0,0,0-2.47,5.43c0,.15,0,.28,0,.39v1.31a1.46,1.46,0,0,0-.33.49,3.59,3.59,0,0,0-.17,1.23,2.37,2.37,0,0,0,1.07,2.19,4.93,4.93,0,0,0,1.95,2.82v1.49A8.64,8.64,0,0,0,412.54,257.24Zm10,1.84H413s1-6,7.05-6.54v-2.78s-2-1.15-2-3c0,0-1,0-1-1.51,0-.91.18-1.09.33-1.09a.28.28,0,0,1,.17.08v-2c0-1-.5-3.52,2-5a5.4,5.4,0,0,1,2.39-.37,17.67,17.67,0,0,1,3.65.37,4.27,4.27,0,0,0,1.08.17,3.06,3.06,0,0,0,1.44-.42h0c.12,0-1,1.85-.88,2a6.86,6.86,0,0,1,.37,3.26v2a.28.28,0,0,1,.17-.08c.15,0,.33.18.33,1.09,0,1.14-.58,1.28-.86,1.28a.52.52,0,0,1-.15,0,3.41,3.41,0,0,1-2,3.27v2.78c6,.5,7.05,6.54,7.05,6.54Zm10-1.84a8.64,8.64,0,0,0-6.55-5.51v-1.42a4.29,4.29,0,0,0,2-3,2,2,0,0,0,1.06-2,2.34,2.34,0,0,0-.5-1.73v-1.3c0-.11,0-.24,0-.39a7,7,0,0,0-.32-2.92l.35-.72c.46-.91.63-1.25.34-1.73a.94.94,0,0,0-.79-.44h0a1,1,0,0,0-.42.1,2.18,2.18,0,0,1-1,.32,3.55,3.55,0,0,1-.85-.14,9.15,9.15,0,0,0-1.25-.22,1.61,1.61,0,0,1,.7-.41,17.43,17.43,0,0,1,3.61-.36,5.43,5.43,0,0,1,2.35.36c2.48,1.49,2,4,2,5v2a.29.29,0,0,1,.18-.08c.14,0,.32.18.32,1.07,0,1.49-1,1.49-1,1.49,0,1.84-2,3-2,3v2.74c6,.5,6.95,6.45,6.95,6.45Z"/><path class="cls-9" d="M449.19,243.59l-5.95-6a1.1,1.1,0,0,0-1.1-.3,1.12,1.12,0,0,0-.81.79l-2.26,8.18a1.12,1.12,0,0,0,.29,1.1,1.14,1.14,0,0,0,.81.34,1,1,0,0,0,.29,0l3.44-.89a22.13,22.13,0,0,1-12.36,20A21.74,21.74,0,0,1,422,269a.46.46,0,0,0,0,.92h0a22.63,22.63,0,0,0,9.94-2.33,23,23,0,0,0,12.88-21.06l3.85-1a1.15,1.15,0,0,0,.52-1.9Zm-.6.85a.23.23,0,0,1-.16.16l-3.65,1-.91.23-3.65.95a.2.2,0,0,1-.2-.06.2.2,0,0,1-.06-.21l2.26-8.17a.2.2,0,0,1,.15-.15h.06a.21.21,0,0,1,.15.06l5.95,6A.22.22,0,0,1,448.59,244.44Z"/><path class="cls-9" d="M404.16,234.52l.29,0,8.2-2.14a1.14,1.14,0,0,0,.53-1.9l-2.5-2.53a22.09,22.09,0,0,1,23.5.71,21.7,21.7,0,0,1,6.71,7.14.46.46,0,0,0,.8-.46A23,23,0,0,0,410,227.24l-2.78-2.83a1.14,1.14,0,0,0-1.91.5l-2.26,8.17a1.14,1.14,0,0,0,1.1,1.44Zm2-9.37a.22.22,0,0,1,.15-.15.21.21,0,0,1,.21.06l2.65,2.69.66.67,2.64,2.68a.21.21,0,0,1,.06.21.22.22,0,0,1-.16.15l-8.21,2.13a.2.2,0,0,1-.2-.05.21.21,0,0,1-.06-.21Z"/><path class="cls-9" d="M413.86,262.17a1.13,1.13,0,0,0-1.91.49l-.95,3.43a22.1,22.1,0,0,1-11.13-20.71A21.72,21.72,0,0,1,402.7,236a.46.46,0,1,0-.8-.46,22.69,22.69,0,0,0-2.95,9.78A23,23,0,0,0,410.75,267l-1.06,3.83a1.14,1.14,0,0,0,1.09,1.44,1.54,1.54,0,0,0,.3,0l8.2-2.13a1.13,1.13,0,0,0,.81-.8,1.11,1.11,0,0,0-.28-1.1Zm5.35,6.89a.2.2,0,0,1-.16.15l-8.21,2.14h0a.25.25,0,0,1-.21-.06.21.21,0,0,1-.05-.21l1-3.64.24-.9,1-3.63a.24.24,0,0,1,.15-.16h.06a.21.21,0,0,1,.15.06l5.95,6A.22.22,0,0,1,419.21,269.06Z"/><path class="cls-8" d="M370.82,193.78h-3.41v-2.59a.46.46,0,0,0-.46-.46.47.47,0,0,0-.46.46v2.59h-5.14v-2.59a.47.47,0,0,0-.46-.46.46.46,0,0,0-.46.46v2.59h-5.14v-2.59a.47.47,0,0,0-.46-.46.46.46,0,0,0-.46.46v2.59h-5.15v-2.59a.46.46,0,0,0-.46-.46.47.47,0,0,0-.46.46v2.59h-5.14v-2.59a.46.46,0,1,0-.92,0v2.59H337.1v-2.59a.47.47,0,0,0-.46-.46.46.46,0,0,0-.46.46v2.59h-8.12v-8.44h3.34a.46.46,0,0,0,.46-.46.47.47,0,0,0-.46-.46h-3.34v-4.79h3.34a.46.46,0,0,0,.46-.46.47.47,0,0,0-.46-.46h-3.34v-4.79h3.34a.46.46,0,0,0,.46-.46.47.47,0,0,0-.46-.46h-3.34v-4.79h3.34a.46.46,0,0,0,.46-.46.47.47,0,0,0-.46-.46h-3.34V162.5h3.34a.46.46,0,0,0,.46-.46.47.47,0,0,0-.46-.46h-3.34v-4.79h3.34a.46.46,0,0,0,.46-.46.47.47,0,0,0-.46-.46h-3.34V151a.46.46,0,0,0-.46-.46.47.47,0,0,0-.46.46v43.21a.46.46,0,0,0,.46.46h43.22a.46.46,0,0,0,.46-.46A.47.47,0,0,0,370.82,193.78Z"/><path class="cls-8" d="M336.64,187.67h4a.45.45,0,0,0,.46-.46V159.3a.45.45,0,0,0-.46-.46h-4a.45.45,0,0,0-.46.46v27.91A.45.45,0,0,0,336.64,187.67Zm.46-27.91h3.07v27H337.1Z"/><path class="cls-8" d="M344.62,187.67h4a.46.46,0,0,0,.46-.46v-15.8a9.39,9.39,0,0,0,2.76,1.06v14.74a.45.45,0,0,0,.46.46h4a.45.45,0,0,0,.46-.46V172.16a9.49,9.49,0,0,0,2.46-1.29l.71.7v15.64a.45.45,0,0,0,.46.46h4a.45.45,0,0,0,.46-.46V176.49l3.9,3.9a1.38,1.38,0,1,0,1.95-1.95l-5.85-5.85v-2.43a.45.45,0,0,0-.46-.46h-2.43l-.78-.79a9.24,9.24,0,1,0-15.58-1.12h-1a.45.45,0,0,0-.46.46v19A.45.45,0,0,0,344.62,187.67Zm11.21-.92h-3.07V172.62c.32,0,.64,0,1,0a9.27,9.27,0,0,0,2.1-.24Zm8.08,0h-3.07V172.49l3.07,3.08Zm0-16.13v1l-1.05-1Zm-2.35,0,2.35,2.35.92.92,5.2,5.2a.46.46,0,0,1,0,.65.48.48,0,0,1-.65,0l-4.55-4.55-.92-.92-3.07-3.08-.58-.58.33-.31.32-.34Zm-13.72-13.07a8.32,8.32,0,0,1,12.28,11.21c-.16.19-.33.38-.51.56a6.47,6.47,0,0,1-.56.5,7.9,7.9,0,0,1-2.3,1.35,7.07,7.07,0,0,1-.92.3,8.16,8.16,0,0,1-3.07.22,9.3,9.3,0,0,1-.92-.16,8.23,8.23,0,0,1-2.76-1.19,8.05,8.05,0,0,1-.92-.74c-.11-.09-.22-.18-.32-.28s-.37-.4-.55-.61a7.21,7.21,0,0,1-.64-.92A8.34,8.34,0,0,1,347.84,157.55Zm-2.76,11.16h1.07a9.53,9.53,0,0,0,1,1.26,10.9,10.9,0,0,0,1,.83v15.95h-3.08Z"/><path class="cls-8" d="M350.1,164.11c1.15,1.15,2.47.49,3.68-.22l2.27,2.28a3.67,3.67,0,0,1-2.55.8l.13,1.06a4.22,4.22,0,0,0,3.12-1.16l.84.83.57-.57-.85-.84c1.35-1.55,1-3,.17-3.8-1.22-1.23-2.6-.56-3.84.13l-2-2a3.18,3.18,0,0,1,2.09-.67l-.1-1a3.93,3.93,0,0,0-2.7,1L350,159l-.57.57.85.85C349.26,161.63,349.12,163.14,350.1,164.11Zm6.65-.76a1.56,1.56,0,0,1-.14,2.24l-2.11-2.12C355.34,163,356.12,162.71,356.75,163.35ZM351,161.13l1.91,1.91c-.8.45-1.53.75-2.07.22A1.52,1.52,0,0,1,351,161.13Z"/><path class="cls-8" d="M348.39,168.77a7.8,7.8,0,0,0,.69.6,7.43,7.43,0,0,0,2.76,1.36,7.12,7.12,0,0,0,.92.18,7.25,7.25,0,0,0,3.07-.23,7.22,7.22,0,0,0,.92-.34,7.54,7.54,0,1,0-9.17-2.55A8.26,8.26,0,0,0,348.39,168.77Zm.65-10a6.63,6.63,0,1,1,7.71,10.58,6.82,6.82,0,0,1-1,.4,6.73,6.73,0,0,1-3,.25,7.18,7.18,0,0,1-.92-.2,6.62,6.62,0,0,1-2.79-1.65h0l-.27-.3A6.64,6.64,0,0,1,349,158.75Z"/><g class="cls-14"><path class="cls-13" d="M383.32,389.16a47.75,47.75,0,0,0-52.06-10.36h0a47.76,47.76,0,0,0-29.5,44.14V441.3c4.75-.13,9.44-.5,14.07-1.08a38,38,0,0,0,69.86-29q5.52-4.29,10.62-9.09Z"/></g><g class="cls-14"><path class="cls-13" d="M264,378.8h0A47.77,47.77,0,0,0,212,389.16l-13,13q5.09,4.8,10.62,9.09a38,38,0,0,0,69.86,29c4.62.58,9.31.95,14.06,1.08V422.94A47.77,47.77,0,0,0,264,378.8Z"/></g><g class="cls-14"><path class="cls-13" d="M331.26,216.48h0a47.78,47.78,0,0,0,52.06-10.36l13-13q-5.08-4.78-10.62-9.08a38,38,0,0,0-69.86-29q-6.94-.88-14.07-1.09v18.37A47.78,47.78,0,0,0,331.26,216.48Z"/></g><g class="cls-14"><path class="cls-13" d="M389.16,212A47.77,47.77,0,0,0,378.8,264h0a47.77,47.77,0,0,0,44.14,29.49H441.3c-.12-4.44-.45-8.84-1-13.17a38,38,0,0,0-28.5-70,142.55,142.55,0,0,0-9.69-11.4Z"/></g><g class="cls-14"><path class="cls-13" d="M216.48,331.26h0a47.78,47.78,0,0,0-44.14-29.5H154q.19,6.87,1,13.55a38,38,0,0,0,28.93,70.21q4.35,5.63,9.22,10.79l13-13A47.78,47.78,0,0,0,216.48,331.26Z"/></g><g class="cls-14"><path class="cls-13" d="M440.17,316.15a142.2,142.2,0,0,0,1.13-14.39H422.94a47.77,47.77,0,0,0-44.14,29.5h0a47.76,47.76,0,0,0,10.36,52.06l13,13q4.68-4.95,8.87-10.33a38,38,0,0,0,29.16-69.83Z"/></g><g class="cls-14"><path class="cls-13" d="M246.24,135.23a38,38,0,0,0-36.5,48.7q-5.61,4.33-10.77,9.2l13,13A47.8,47.8,0,0,0,264,216.48h0a47.79,47.79,0,0,0,29.49-44.14V154q-7,.19-13.88,1.06A38,38,0,0,0,246.24,135.23Z"/></g><g class="cls-14"><path class="cls-13" d="M154.85,281.19q-.69,6.09-.88,12.32h18.37A47.79,47.79,0,0,0,216.48,264h0A47.8,47.8,0,0,0,206.12,212l-13-13a143.12,143.12,0,0,0-10,11.82,38,38,0,0,0-28.27,70.4Z"/></g></svg>